<svg xmlns="http://www.w3.org/2000/svg" viewBox="0 0 250 150"><path d="M0 0 C82.5 0 165 0 250 0 C250 49.5 250 99 250 150 C167.5 150 85 150 0 150 C0 100.5 0 51 0 0 Z " fill="#FEFEFE" transform="translate(0,0)"/> <path d="M0 0 C0.66 2.64 1.32 5.28 2 8 C2.66 8 3.32 8 4 8 C3.67 8.99 3.34 9.98 3 11 C-3.625 12 -3.625 12 -7 12 C-9.04266282 12.56969366 -9.04266282 12.56969366 -11.125 13.375 C-11.82882813 13.63023438 -12.53265625 13.88546875 -13.2578125 14.1484375 C-15.19028413 14.87458279 -15.19028413 14.87458279 -16 17 C-15.67240066 19.33414529 -15.33926947 21.66752239 -15 24 C-17.08058657 26.08058657 -21.41960849 25.38043408 -24.23828125 25.5234375 C-27.28462043 26.04911413 -28.71491661 26.97002093 -31 29 C-29.68 29 -28.36 29 -27 29 C-25.68 29 -24.36 29 -23 29 C-22.01 31.64 -21.02 34.28 -20 37 C-19.01 36.505 -19.01 36.505 -18 36 C-17.67 35.01 -17.34 34.02 -17 33 C-18.485 33.495 -18.485 33.495 -20 34 C-20.33 32.68 -20.66 31.36 -21 30 C-16.33333333 31.33333333 -11.66666667 32.66666667 -7 34 C-7.28875 33.13117187 -7.5775 32.26234375 -7.875 31.3671875 C-8.24625 30.21476562 -8.6175 29.06234375 -9 27.875 C-9.37125 26.73804687 -9.7425 25.60109375 -10.125 24.4296875 C-10.97891399 21.08264962 -11.31838975 18.43263946 -11 15 C-10.34 14.34 -9.68 13.68 -9 13 C-5.52429204 13.26231758 -2.63763743 13.72006162 0.5625 15.125 C3.77036902 16.27654272 5.6336206 15.61206898 9 15 C21.16718722 13.21128589 32.3859546 18.69682274 42.484375 25.125 C45 27 45 27 45.875 29.25 C45.91625 29.8275 45.9575 30.405 46 31 C44.35 31 42.7 31 41 31 C41 31.66 41 32.32 41 33 C40.43152344 33.04898438 39.86304688 33.09796875 39.27734375 33.1484375 C34.28918871 33.63143081 29.77400422 34.47638163 25 36 C25.350625 36.515625 25.70125 37.03125 26.0625 37.5625 C27.3615641 40.94006667 26.67217681 43.50468057 26 47 C22.12506344 48.07637127 20.47547073 47.94566951 17 46 C17.30292969 46.55985596 17.60585937 47.11971191 17.91796875 47.6965332 C19.28509867 50.23177047 20.6426333 52.77202314 22 55.3125 C22.47695312 56.19357422 22.95390625 57.07464844 23.4453125 57.98242188 C24.12207031 59.25375977 24.12207031 59.25375977 24.8125 60.55078125 C25.23144531 61.33106689 25.65039062 62.11135254 26.08203125 62.9152832 C27 65 27 65 27 68 C24.36 68.99 21.72 69.98 19 71 C19.721875 71.350625 20.44375 71.70125 21.1875 72.0625 C24.62172223 74.42829753 27.19005108 77.20772608 29 81 C28.505 82.485 28.505 82.485 28 84 C28 83.34 28 82.68 28 82 C27.34 82 26.68 82 26 82 C25.979375 82.763125 25.95875 83.52625 25.9375 84.3125 C25 87 25 87 22.375 88.875 C16.3805771 91.13395095 9.24114633 89.66668616 3 89 C3.64067976 92.08759559 3.64067976 92.08759559 5.84765625 92.94921875 C6.57855469 93.19285156 7.30945313 93.43648438 8.0625 93.6875 C8.79597656 93.93886719 9.52945313 94.19023438 10.28515625 94.44921875 C10.85105469 94.63097656 11.41695312 94.81273438 12 95 C12 95.66 12 96.32 12 97 C11.25234375 96.97679688 10.5046875 96.95359375 9.734375 96.9296875 C8.74953125 96.91164063 7.7646875 96.89359375 6.75 96.875 C5.77546875 96.85179688 4.8009375 96.82859375 3.796875 96.8046875 C1.03292622 96.81003166 1.03292622 96.81003166 -1.03125 98.0625 C-3.74647964 99.35546649 -5.36373019 98.80859022 -8.25 98.125 C-9.14203125 97.92132813 -10.0340625 97.71765625 -10.953125 97.5078125 C-11.62859375 97.34023437 -12.3040625 97.17265625 -13 97 C-13 96.34 -13 95.68 -13 95 C-17.62 94.34 -22.24 93.68 -27 93 C-26.505 91.515 -26.505 91.515 -26 90 C-27.32 89.34 -28.64 88.68 -30 88 C-30 87.01 -30 86.02 -30 85 C-30.5775 84.773125 -31.155 84.54625 -31.75 84.3125 C-34.72046866 82.57972661 -36.18020872 80.92466456 -38 78 C-38.25 74.1875 -38.25 74.1875 -38 71 C-39.65 71 -41.3 71 -43 71 C-42.34 69.02 -41.68 67.04 -41 65 C-41.33 64.67 -41.66 64.34 -42 64 C-42.0979057 62.50261876 -42.12974864 61.00057108 -42.125 59.5 C-42.12757812 58.6853125 -42.13015625 57.870625 -42.1328125 57.03125 C-42 55 -42 55 -41 54 C-34.19959057 53.49626597 -28.47606186 55.00003972 -22 57 C-22.67011673 53.97632507 -22.67011673 53.97632507 -24.671875 52.8671875 C-28.99872881 50.7715105 -28.99872881 50.7715105 -33.625 49.5625 C-37.41455911 48.66497284 -39.37391518 46.80930004 -42 44 C-42.375 40.1875 -42.375 40.1875 -42 37 C-36.37129115 34.06838081 -33.22833095 33.7980414 -27 35 C-27 34.34 -27 33.68 -27 33 C-27.74765625 33.01160156 -28.4953125 33.02320313 -29.265625 33.03515625 C-30.74289063 33.04869141 -30.74289063 33.04869141 -32.25 33.0625 C-33.22453125 33.07410156 -34.1990625 33.08570313 -35.203125 33.09765625 C-37.65758678 33.01195577 -39.66168914 32.70706066 -42 32 C-42.55905714 28.8053878 -42.43962156 26.71388088 -40.72265625 23.92578125 C-35.60510481 17.6477873 -30.7313597 15.90284019 -23 14 C-23.33 13.67 -23.66 13.34 -24 13 C-24.3125 10.625 -24.3125 10.625 -24 8 C-20.75340901 4.87576797 -16.76225 3.67136339 -12.5625 2.3125 C-11.90701172 2.08755859 -11.25152344 1.86261719 -10.57617188 1.63085938 C-6.94780155 0.43353356 -3.82287129 -0.2725361 0 0 Z " fill="#D8AB44" transform="translate(119,15)"/> <path d="M0 0 C0.66 2.64 1.32 5.28 2 8 C2.66 8 3.32 8 4 8 C3.67 8.99 3.34 9.98 3 11 C-3.625 12 -3.625 12 -7 12 C-9.04266282 12.56969366 -9.04266282 12.56969366 -11.125 13.375 C-11.82882813 13.63023438 -12.53265625 13.88546875 -13.2578125 14.1484375 C-15.19028413 14.87458279 -15.19028413 14.87458279 -16 17 C-15.67240066 19.33414529 -15.33926947 21.66752239 -15 24 C-17.08058657 26.08058657 -21.41960849 25.38043408 -24.23828125 25.5234375 C-27.28462043 26.04911413 -28.71491661 26.97002093 -31 29 C-29.68 29 -28.36 29 -27 29 C-25.68 29 -24.36 29 -23 29 C-22.01 31.64 -21.02 34.28 -20 37 C-19.01 36.505 -19.01 36.505 -18 36 C-17.67 35.01 -17.34 34.02 -17 33 C-18.485 33.495 -18.485 33.495 -20 34 C-20.33 32.68 -20.66 31.36 -21 30 C-16.33333333 31.33333333 -11.66666667 32.66666667 -7 34 C-7.28875 33.13117187 -7.5775 32.26234375 -7.875 31.3671875 C-8.24625 30.21476562 -8.6175 29.06234375 -9 27.875 C-9.37125 26.73804687 -9.7425 25.60109375 -10.125 24.4296875 C-10.97891399 21.08264962 -11.31838975 18.43263946 -11 15 C-10.34 14.34 -9.68 13.68 -9 13 C-5.52429204 13.26231758 -2.63763743 13.72006162 0.5625 15.125 C3.77036902 16.27654272 5.6336206 15.61206898 9 15 C21.16718722 13.21128589 32.3859546 18.69682274 42.484375 25.125 C45 27 45 27 45.875 29.25 C45.91625 29.8275 45.9575 30.405 46 31 C44.35 31 42.7 31 41 31 C41 31.66 41 32.32 41 33 C40.43152344 33.04898438 39.86304688 33.09796875 39.27734375 33.1484375 C34.28918871 33.63143081 29.77400422 34.47638163 25 36 C25.350625 36.515625 25.70125 37.03125 26.0625 37.5625 C27.3615641 40.94006667 26.67217681 43.50468057 26 47 C22.12506344 48.07637127 20.47547073 47.94566951 17 46 C17.28875 46.55429687 17.5775 47.10859375 17.875 47.6796875 C18.24625 48.40414062 18.6175 49.12859375 19 49.875 C19.37125 50.59429687 19.7425 51.31359375 20.125 52.0546875 C21 54 21 54 21 56 C20.21753906 56.37511719 19.43507812 56.75023437 18.62890625 57.13671875 C17.61699219 57.64847656 16.60507813 58.16023438 15.5625 58.6875 C14.55316406 59.18636719 13.54382813 59.68523437 12.50390625 60.19921875 C9.76978627 61.78549073 9.76978627 61.78549073 9.15234375 64.70703125 C9.10207031 65.46371094 9.05179688 66.22039062 9 67 C6.625 66.6875 6.625 66.6875 4 66 C3.34 65.01 2.68 64.02 2 63 C0.02 63.99 0.02 63.99 -2 65 C-4 63 -4 63 -4.125 59.375 C-4.08375 58.26125 -4.0425 57.1475 -4 56 C-4.58523437 55.89429688 -5.17046875 55.78859375 -5.7734375 55.6796875 C-8.31266895 54.90455369 -9.64641546 53.87696252 -11.625 52.125 C-12.21539062 51.61195312 -12.80578125 51.09890625 -13.4140625 50.5703125 C-15 49 -15 49 -17 46 C-17 44.68 -17 43.36 -17 42 C-15.02 41.505 -15.02 41.505 -13 41 C-12.67 39.68 -12.34 38.36 -12 37 C-11.34 37 -10.68 37 -10 37 C-10 36.34 -10 35.68 -10 35 C-11.65 34.67 -13.3 34.34 -15 34 C-15.268125 34.61875 -15.53625 35.2375 -15.8125 35.875 C-17 38 -17 38 -20 40 C-21.17219543 39.21654285 -22.33763668 38.42297164 -23.5 37.625 C-24.1496875 37.18414062 -24.799375 36.74328125 -25.46875 36.2890625 C-26.22671875 35.65097656 -26.22671875 35.65097656 -27 35 C-27 34.34 -27 33.68 -27 33 C-27.74765625 33.01160156 -28.4953125 33.02320313 -29.265625 33.03515625 C-30.74289063 33.04869141 -30.74289063 33.04869141 -32.25 33.0625 C-33.22453125 33.07410156 -34.1990625 33.08570313 -35.203125 33.09765625 C-37.65758678 33.01195577 -39.66168914 32.70706066 -42 32 C-42.55905714 28.8053878 -42.43962156 26.71388088 -40.72265625 23.92578125 C-35.60510481 17.6477873 -30.7313597 15.90284019 -23 14 C-23.33 13.67 -23.66 13.34 -24 13 C-24.3125 10.625 -24.3125 10.625 -24 8 C-20.75340901 4.87576797 -16.76225 3.67136339 -12.5625 2.3125 C-11.90701172 2.08755859 -11.25152344 1.86261719 -10.57617188 1.63085938 C-6.94780155 0.43353356 -3.82287129 -0.2725361 0 0 Z " fill="#624D38" transform="translate(119,15)"/> <path d="M0 0 C0.66 1.32 1.32 2.64 2 4 C2.66 4 3.32 4 4 4 C4.495 5.98 4.495 5.98 5 8 C5.598125 7.34 6.19625 6.68 6.8125 6 C9 4 9 4 12 4 C12 7.3 12 10.6 12 14 C13.32 13.34 14.64 12.68 16 12 C17.125 16.75 17.125 16.75 16 19 C16.020625 19.9075 16.04125 20.815 16.0625 21.75 C15.99584619 25.21599821 15.22728205 27.77838463 14 31 C15.65 31 17.3 31 19 31 C18.67 31.99 18.34 32.98 18 34 C17.01 34 16.02 34 15 34 C15.33 34.99 15.66 35.98 16 37 C15.01 37.495 15.01 37.495 14 38 C14.33 38.66 14.66 39.32 15 40 C14.34 40 13.68 40 13 40 C13 40.66 13 41.32 13 42 C12.34 42 11.68 42 11 42 C11 42.99 11 43.98 11 45 C10.34 45 9.68 45 9 45 C9 45.66 9 46.32 9 47 C8.34 46.67 7.68 46.34 7 46 C7 45.01 7 44.02 7 43 C6.67 44.98 6.34 46.96 6 49 C5.67 48.34 5.34 47.68 5 47 C4.34 47 3.68 47 3 47 C3 47.66 3 48.32 3 49 C2.34 49 1.68 49 1 49 C0.505 49.99 0.505 49.99 0 51 C0 50.34 0 49.68 0 49 C-0.66 49 -1.32 49 -2 49 C-2 48.34 -2 47.68 -2 47 C-1.34 47 -0.68 47 0 47 C0.2475 46.195625 0.495 45.39125 0.75 44.5625 C2 42 2 42 4.125 41.1875 C5.053125 41.0946875 5.053125 41.0946875 6 41 C4.35 40.67 2.7 40.34 1 40 C0.67 40.99 0.34 41.98 0 43 C0 42.01 0 41.02 0 40 C-1.65 40 -3.3 40 -5 40 C-4.855625 40.55429688 -4.71125 41.10859375 -4.5625 41.6796875 C-4.376875 42.40414062 -4.19125 43.12859375 -4 43.875 C-3.814375 44.59429687 -3.62875 45.31359375 -3.4375 46.0546875 C-3 48 -3 48 -3 50 C-2.01 50.495 -2.01 50.495 -1 51 C-1.33 52.65 -1.66 54.3 -2 56 C-2.99 55.505 -2.99 55.505 -4 55 C-4.33 55.99 -4.66 56.98 -5 58 C-5.99 57.505 -5.99 57.505 -7 57 C-6.67 55.68 -6.34 54.36 -6 53 C-6.66 53 -7.32 53 -8 53 C-8 54.98 -8 56.96 -8 59 C-8.66 59 -9.32 59 -10 59 C-10.45375 59.495 -10.9075 59.99 -11.375 60.5 C-13 62 -13 62 -17 62 C-17.495 60.02 -17.495 60.02 -18 58 C-16.68 57.34 -15.36 56.68 -14 56 C-15.65 56.66 -17.3 57.32 -19 58 C-19 59.65 -19 61.3 -19 63 C-19.66 61.68 -20.32 60.36 -21 59 C-21.66 59 -22.32 59 -23 59 C-22.505 61.475 -22.505 61.475 -22 64 C-22.33 63.34 -22.66 62.68 -23 62 C-23.66 62 -24.32 62 -25 62 C-25 62.99 -25 63.98 -25 65 C-27.31 65 -29.62 65 -32 65 C-32 62.03 -32 59.06 -32 56 C-32.99 56 -33.98 56 -35 56 C-35 56.66 -35 57.32 -35 58 C-34.34 58 -33.68 58 -33 58 C-33 58.66 -33 59.32 -33 60 C-33.66 60 -34.32 60 -35 60 C-35 60.66 -35 61.32 -35 62 C-34.34 62 -33.68 62 -33 62 C-33.33 62.99 -33.66 63.98 -34 65 C-34.66 64.34 -35.32 63.68 -36 63 C-36.99 63.495 -36.99 63.495 -38 64 C-38.33 62.68 -38.66 61.36 -39 60 C-39 60.99 -39 61.98 -39 63 C-39.66 62.67 -40.32 62.34 -41 62 C-41.33 62.33 -41.66 62.66 -42 63 C-42.66 62.01 -43.32 61.02 -44 60 C-44.66 60.66 -45.32 61.32 -46 62 C-46 61.01 -46 60.02 -46 59 C-46.66 59 -47.32 59 -48 59 C-48.33 59.99 -48.66 60.98 -49 62 C-54.75 60.375 -54.75 60.375 -57 57 C-59.56282742 56.27034634 -59.56282742 56.27034634 -62 56 C-61.3125 53.5625 -61.3125 53.5625 -60 51 C-56.87327877 49.73241031 -55.39198948 49.86933684 -52.1875 50.9375 C-51.1046875 51.4634375 -51.1046875 51.4634375 -50 52 C-50 52.66 -50 53.32 -50 54 C-48.41870971 54.22331199 -46.83478911 54.42804644 -45.25 54.625 C-44.36828125 54.74101563 -43.4865625 54.85703125 -42.578125 54.9765625 C-39.72129619 55.00253367 -38.46298942 54.3485376 -36 53 C-32.14654251 52.79356478 -28.69166634 52.81866677 -25 54 C-25.33 53.34 -25.66 52.68 -26 52 C-28.3140622 51.26924352 -30.64828869 50.59861742 -33 50 C-33.33 48.68 -33.66 47.36 -34 46 C-32.49759766 46.05220703 -32.49759766 46.05220703 -30.96484375 46.10546875 C-21.02351097 46.57602622 -21.02351097 46.57602622 -12 43 C-11.11306697 40.95894361 -11.11306697 40.95894361 -11 39 C-10.34 38.67 -9.68 38.34 -9 38 C-9.90626784 36.7010161 -10.82549537 35.41106833 -11.75 34.125 C-12.26046875 33.40570313 -12.7709375 32.68640625 -13.296875 31.9453125 C-15.07503547 29.91429435 -16.52701607 29.02144988 -19 28 C-15.81237635 25.87491756 -13.73487777 25.4979837 -10 25 C-10.495 24.01 -10.495 24.01 -11 23 C-12.88287147 17.3513856 -12.14901675 11.74508376 -11 6 C-8.13275314 6.57344937 -7.1385485 6.8614515 -5 9 C-4.01 7.02 -3.02 5.04 -2 3 C-1.34 3 -0.68 3 0 3 C0 2.01 0 1.02 0 0 Z " fill="#E9F1E9" transform="translate(156,58)"/> <path d="M0 0 C3.68266103 0.59950296 7.34543185 1.24758891 11 2 C11 3.32 11 4.64 11 6 C12.65 6 14.3 6 16 6 C15.01 5.01 14.02 4.02 13 3 C15.31 3.33 17.62 3.66 20 4 C19.25 6.9375 19.25 6.9375 18 10 C14.91323116 11.59660457 12.27425398 10.79644016 9 10 C8.67 10 8.34 10 8 10 C7.34 12.64 6.68 15.28 6 18 C5.01 18 4.02 18 3 18 C2.67 19.98 2.34 21.96 2 24 C3.65 24.33 5.3 24.66 7 25 C6.34 25.33 5.68 25.66 5 26 C5.28875 26.55429687 5.5775 27.10859375 5.875 27.6796875 C6.431875 28.76636719 6.431875 28.76636719 7 29.875 C7.37125 30.59429687 7.7425 31.31359375 8.125 32.0546875 C9 34 9 34 9 36 C8.21753906 36.37511719 7.43507812 36.75023437 6.62890625 37.13671875 C5.61699219 37.64847656 4.60507813 38.16023438 3.5625 38.6875 C2.55316406 39.18636719 1.54382813 39.68523437 0.50390625 40.19921875 C-2.23021373 41.78549073 -2.23021373 41.78549073 -2.84765625 44.70703125 C-2.92306641 45.84205078 -2.92306641 45.84205078 -3 47 C-5.375 46.6875 -5.375 46.6875 -8 46 C-8.66 45.01 -9.32 44.02 -10 43 C-11.32 43.66 -12.64 44.32 -14 45 C-16 43 -16 43 -16.125 39.375 C-16.08375 38.26125 -16.0425 37.1475 -16 36 C-17.32 35.67 -18.64 35.34 -20 35 C-19.95875 34.071875 -19.9175 33.14375 -19.875 32.1875 C-19.72863661 28.84190281 -19.72863661 28.84190281 -22 26 C-21.01 25.67 -20.02 25.34 -19 25 C-19.66 24.34 -20.32 23.68 -21 23 C-21.125 20.375 -21.125 20.375 -21 18 C-20.34 17.67 -19.68 17.34 -19 17 C-18.34 17.33 -17.68 17.66 -17 18 C-17 17.34 -17 16.68 -17 16 C-16.01 16 -15.02 16 -14 16 C-13.34 16.66 -12.68 17.32 -12 18 C-11.34 15.03 -10.68 12.06 -10 9 C-9.34 9 -8.68 9 -8 9 C-7.81627964 13.04184793 -8.10186743 15.4568192 -10 19 C-9.67 19.66 -9.34 20.32 -9 21 C-9.33 21.66 -9.66 22.32 -10 23 C-8.68 23.33 -7.36 23.66 -6 24 C-6.66 22.68 -7.32 21.36 -8 20 C-6.68 20 -5.36 20 -4 20 C-5.32 19.34 -6.64 18.68 -8 18 C-7.34 18 -6.68 18 -6 18 C-4.98459888 13.89776415 -4.98459888 13.89776415 -6 10 C-4.68 10 -3.36 10 -2 10 C-2 10.66 -2 11.32 -2 12 C-1.4225 11.62875 -0.845 11.2575 -0.25 10.875 C2 10 2 10 4.25 10.875 C4.8275 11.24625 5.405 11.6175 6 12 C6 11.34 6 10.68 6 10 C4.68 9.67 3.36 9.34 2 9 C2.33 7.35 2.66 5.7 3 4 C1.68 5.65 0.36 7.3 -1 9 C-3.97 8.505 -3.97 8.505 -7 8 C-7 6.68 -7 5.36 -7 4 C-6.34 4 -5.68 4 -5 4 C-4.67 3.01 -4.34 2.02 -4 1 C-3.34 1.33 -2.68 1.66 -2 2 C-2.33 2.66 -2.66 3.32 -3 4 C-2.34 4.33 -1.68 4.66 -1 5 C-1 4.34 -1 3.68 -1 3 C-0.34 3 0.32 3 1 3 C0.67 2.01 0.34 1.02 0 0 Z " fill="#685037" transform="translate(131,35)"/> <path d="M0 0 C1.66456547 0.94157239 3.27466073 1.97828354 4.87109375 3.03125 C6.19109375 1.38125 7.51109375 -0.26875 8.87109375 -1.96875 C11.34609375 -1.47375 11.34609375 -1.47375 13.87109375 -0.96875 C13.87109375 -0.30875 13.87109375 0.35125 13.87109375 1.03125 C13.21109375 1.03125 12.55109375 1.03125 11.87109375 1.03125 C11.54109375 2.35125 11.21109375 3.67125 10.87109375 5.03125 C9.55109375 5.36125 8.23109375 5.69125 6.87109375 6.03125 C8.41490439 10.57186954 9.59596931 13.05523501 13.49609375 15.90625 C15.8062854 17.69604058 16.73823873 18.56433757 17.546875 21.40625 C17.78005683 23.63365851 17.90591175 25.79295015 17.87109375 28.03125 C13.51574306 26.86982315 11.22489672 25.95425495 8.87109375 22.03125 C4.35820571 23.53554601 2.12318553 27.05228926 -0.12890625 31.03125 C-1.01202698 33.36812331 -1.57954353 35.58408878 -2.12890625 38.03125 C-2.78890625 37.70125 -3.44890625 37.37125 -4.12890625 37.03125 C-4.12890625 36.37125 -4.12890625 35.71125 -4.12890625 35.03125 C-5.11890625 35.03125 -6.10890625 35.03125 -7.12890625 35.03125 C-7.45890625 35.69125 -7.78890625 36.35125 -8.12890625 37.03125 C-8.56203125 36.556875 -8.99515625 36.0825 -9.44140625 35.59375 C-11.15200238 33.79438043 -11.15200238 33.79438043 -14.12890625 33.03125 C-14.12890625 33.69125 -14.12890625 34.35125 -14.12890625 35.03125 C-15.77890625 35.03125 -17.42890625 35.03125 -19.12890625 35.03125 C-18.13890625 32.06125 -18.13890625 32.06125 -17.12890625 29.03125 C-17.45890625 28.70125 -17.78890625 28.37125 -18.12890625 28.03125 C-18.22681195 26.53386876 -18.25865489 25.03182108 -18.25390625 23.53125 C-18.25648437 22.7165625 -18.2590625 21.901875 -18.26171875 21.0625 C-18.12890625 19.03125 -18.12890625 19.03125 -17.12890625 18.03125 C-10.32849682 17.52751597 -4.60496811 19.03128972 1.87109375 21.03125 C1.20097702 18.00757507 1.20097702 18.00757507 -0.80078125 16.8984375 C-5.12763506 14.8027605 -5.12763506 14.8027605 -9.75390625 13.59375 C-13.54346536 12.69622284 -15.50282143 10.84055004 -18.12890625 8.03125 C-18.50390625 4.21875 -18.50390625 4.21875 -18.12890625 1.03125 C-11.91357032 -2.27477975 -6.57709358 -2.99287928 0 0 Z " fill="#F0EEEE" transform="translate(95.12890625,50.96875)"/> <path d="M0 0 C0.66 1.32 1.32 2.64 2 4 C2.66 4 3.32 4 4 4 C4.33 5.32 4.66 6.64 5 8 C5.598125 7.34 6.19625 6.68 6.8125 6 C9 4 9 4 12 4 C12 7.3 12 10.6 12 14 C13.32 13.34 14.64 12.68 16 12 C17.125 16.75 17.125 16.75 16 19 C16.04125 19.886875 16.0825 20.77375 16.125 21.6875 C15.96931291 25.81320784 14.69681612 28.25545552 13 32 C8.79190116 32.11656783 4.58422004 32.18737611 0.375 32.25 C-1.40970703 32.30027344 -1.40970703 32.30027344 -3.23046875 32.3515625 C-14.12168962 32.47325212 -14.12168962 32.47325212 -19 28 C-15.81237635 25.87491756 -13.73487777 25.4979837 -10 25 C-10.33 24.34 -10.66 23.68 -11 23 C-12.88287147 17.3513856 -12.14901675 11.74508376 -11 6 C-8.13275314 6.57344937 -7.1385485 6.8614515 -5 9 C-4.01 7.02 -3.02 5.04 -2 3 C-1.34 3 -0.68 3 0 3 C0 2.01 0 1.02 0 0 Z " fill="#FFE92D" transform="translate(156,58)"/> <path d="M0 0 C0.84114171 1.43294498 1.67265687 2.87154405 2.5 4.3125 C2.9640625 5.11300781 3.428125 5.91351563 3.90625 6.73828125 C5 9 5 9 5 12 C2.36 12.99 -0.28 13.98 -3 15 C-2.278125 15.350625 -1.55625 15.70125 -0.8125 16.0625 C2.62172223 18.42829753 5.19005108 21.20772608 7 25 C6.67 25.99 6.34 26.98 6 28 C6 27.34 6 26.68 6 26 C5.34 26 4.68 26 4 26 C3.979375 26.763125 3.95875 27.52625 3.9375 28.3125 C3 31 3 31 -0.0390625 32.67578125 C-4.2194248 34.32669631 -7.89131627 34.2519684 -12.3125 33.875 C-13.02728516 33.83890625 -13.74207031 33.8028125 -14.47851562 33.765625 C-16.55078125 33.6171875 -16.55078125 33.6171875 -20 33 C-22 30 -22 30 -22 27 C-20.80686528 24.92479782 -19.45767989 23.0014885 -18.09375 21.03515625 C-16.68440405 18.79784006 -16.68440405 18.79784006 -17 15 C-15.02 15 -13.04 15 -11 15 C-11 14.67 -11 14.34 -11 14 C-12.65 13.67 -14.3 13.34 -16 13 C-16 12.34 -16 11.68 -16 11 C-15.01 11 -14.02 11 -13 11 C-13 9.02 -13 7.04 -13 5 C-12.278125 4.731875 -11.55625 4.46375 -10.8125 4.1875 C-7.95860702 3.06767588 -7.95860702 3.06767588 -5.375 1.375 C-3 0 -3 0 0 0 Z " fill="#9F9F9E" transform="translate(141,71)"/> <path d="M0 0 C0.66 2.64 1.32 5.28 2 8 C2.66 8 3.32 8 4 8 C3.67 8.99 3.34 9.98 3 11 C-3.625 12 -3.625 12 -7 12 C-9.04266282 12.56969366 -9.04266282 12.56969366 -11.125 13.375 C-11.82882813 13.63023438 -12.53265625 13.88546875 -13.2578125 14.1484375 C-15.19028413 14.87458279 -15.19028413 14.87458279 -16 17 C-15.67240066 19.33414529 -15.33926947 21.66752239 -15 24 C-17.08058657 26.08058657 -21.41960849 25.38043408 -24.23828125 25.5234375 C-27.28462043 26.04911413 -28.71491661 26.97002093 -31 29 C-29.02 29.66 -27.04 30.32 -25 31 C-25 31.33 -25 31.66 -25 32 C-27.0825867 32.19561869 -29.16611856 32.38119313 -31.25 32.5625 C-32.99023438 32.71912109 -32.99023438 32.71912109 -34.765625 32.87890625 C-37.51871477 32.98198087 -39.419982 32.86213473 -42 32 C-42.55905714 28.8053878 -42.43962156 26.71388088 -40.72265625 23.92578125 C-35.60510481 17.6477873 -30.7313597 15.90284019 -23 14 C-23.33 13.67 -23.66 13.34 -24 13 C-24.3125 10.625 -24.3125 10.625 -24 8 C-20.75340901 4.87576797 -16.76225 3.67136339 -12.5625 2.3125 C-11.90701172 2.08755859 -11.25152344 1.86261719 -10.57617188 1.63085938 C-6.94780155 0.43353356 -3.82287129 -0.2725361 0 0 Z " fill="#CEC7C9" transform="translate(119,15)"/> <path d="M0 0 C2.86724686 0.57344937 3.8614515 0.8614515 6 3 C6.625 5.625 6.625 5.625 7 8 C7.99 7.67 8.98 7.34 10 7 C10.66 7.66 11.32 8.32 12 9 C12.66 9 13.32 9 14 9 C14.33 10.98 14.66 12.96 15 15 C14.34 15 13.68 15 13 15 C13.33 15.66 13.66 16.32 14 17 C15.32 17 16.64 17 18 17 C17.814375 17.78375 17.62875 18.5675 17.4375 19.375 C16.74037734 21.97089775 16.74037734 21.97089775 18 24 C21.02934491 24.65772428 21.02934491 24.65772428 24 25 C24 25.33 24 25.66 24 26 C19.79190116 26.11656783 15.58422004 26.18737611 11.375 26.25 C9.59029297 26.30027344 9.59029297 26.30027344 7.76953125 26.3515625 C-3.12168962 26.47325212 -3.12168962 26.47325212 -8 22 C-4.81237635 19.87491756 -2.73487777 19.4979837 1 19 C0.67 18.34 0.34 17.68 0 17 C-1.88287147 11.3513856 -1.14901675 5.74508376 0 0 Z " fill="#FFE826" transform="translate(145,64)"/> <path d="M0 0 C1.3921875 0.2784375 1.3921875 0.2784375 2.8125 0.5625 C6.01343771 1.24123881 6.01343771 1.24123881 9 0 C11.62890625 1.0390625 11.62890625 1.0390625 14.5625 2.625 C16.01849609 3.38683594 16.01849609 3.38683594 17.50390625 4.1640625 C20.32465854 6.23879423 21.04351752 7.68343943 22 11 C20.35 11 18.7 11 17 11 C17 11.66 17 12.32 17 13 C16.43152344 13.04898438 15.86304688 13.09796875 15.27734375 13.1484375 C10.28918871 13.63143081 5.77400422 14.47638163 1 16 C1.350625 16.515625 1.70125 17.03125 2.0625 17.5625 C3.3615641 20.94006667 2.67217681 23.50468057 2 27 C-0.375 27.625 -0.375 27.625 -3 28 C-3.66 27.34 -4.32 26.68 -5 26 C-7.57061311 25.35232207 -7.57061311 25.35232207 -10 25 C-11 22 -11 22 -10.0625 19.8125 C-9.5365625 18.9153125 -9.5365625 18.9153125 -9 18 C-8.01 18 -7.02 18 -6 18 C-6 17.01 -6 16.02 -6 15 C-6.66 14.34 -7.32 13.68 -8 13 C-7.01 13 -6.02 13 -5 13 C-4.67 11.35 -4.34 9.7 -4 8 C-3.16855469 8.2165625 -3.16855469 8.2165625 -2.3203125 8.4375 C-1.59585938 8.623125 -0.87140625 8.80875 -0.125 9 C0.95394531 9.2784375 0.95394531 9.2784375 2.0546875 9.5625 C3.99289317 10.07313965 3.99289317 10.07313965 6 10 C6.33 8.35 6.66 6.7 7 5 C5.68 4.67 4.36 4.34 3 4 C3 3.34 3 2.68 3 2 C2.01 1.67 1.02 1.34 0 1 C0 0.67 0 0.34 0 0 Z " fill="#523F2C" transform="translate(143,35)"/> <path d="M0 0 C2.1875 -0.3125 2.1875 -0.3125 5 0 C6.11189275 1.14558647 7.2166236 2.29950768 8.2734375 3.49609375 C11.50136525 6.30775028 15.50323961 7.8677285 19.35546875 9.66796875 C22 11 22 11 24 13 C23.9375 15.9375 23.9375 15.9375 23 19 C20.625 20.625 20.625 20.625 18 22 C17.54625 22.721875 17.0925 23.44375 16.625 24.1875 C15 26 15 26 11.4375 26.3125 C8 26 8 26 6 25 C3.6670134 24.95977609 1.33293334 24.95679753 -1 25 C-1.125 22.125 -1.125 22.125 -1 19 C1 17 1 17 2.8828125 16.953125 C8.04512603 17.6366369 12.97424499 18.62933954 18 20 C16.74858129 16.24574386 15.13053901 15.80649986 11.7265625 14.08789062 C10.33337053 13.40812688 8.94014178 12.72843852 7.546875 12.04882812 C0.94489079 8.7157252 0.94489079 8.7157252 -1 5 C-0.6875 2.25 -0.6875 2.25 0 0 Z " fill="#B31233" transform="translate(79,52)"/> <path d="M0 0 C-0.33 0.99 -0.66 1.98 -1 3 C-1.99 3 -2.98 3 -4 3 C-3.67 3.99 -3.34 4.98 -3 6 C-3.99 6.495 -3.99 6.495 -5 7 C-4.67 7.66 -4.34 8.32 -4 9 C-4.66 9 -5.32 9 -6 9 C-6 9.66 -6 10.32 -6 11 C-6.66 11 -7.32 11 -8 11 C-8 11.99 -8 12.98 -8 14 C-8.66 14 -9.32 14 -10 14 C-10 14.66 -10 15.32 -10 16 C-10.66 15.67 -11.32 15.34 -12 15 C-12 14.01 -12 13.02 -12 12 C-12.33 13.98 -12.66 15.96 -13 18 C-13.33 17.34 -13.66 16.68 -14 16 C-14.66 16 -15.32 16 -16 16 C-16 16.66 -16 17.32 -16 18 C-16.66 18 -17.32 18 -18 18 C-18.33 18.66 -18.66 19.32 -19 20 C-19 19.34 -19 18.68 -19 18 C-19.66 18 -20.32 18 -21 18 C-21 17.34 -21 16.68 -21 16 C-20.34 16 -19.68 16 -19 16 C-18.62875 14.7934375 -18.62875 14.7934375 -18.25 13.5625 C-17 11 -17 11 -14.875 10.1875 C-14.25625 10.125625 -13.6375 10.06375 -13 10 C-15.475 9.505 -15.475 9.505 -18 9 C-18.33 9.99 -18.66 10.98 -19 12 C-19 11.01 -19 10.02 -19 9 C-20.65 9 -22.3 9 -24 9 C-24.33 10.65 -24.66 12.3 -25 14 C-25.969375 14.12375 -26.93875 14.2475 -27.9375 14.375 C-28.948125 14.58125 -29.95875 14.7875 -31 15 C-31.33 15.66 -31.66 16.32 -32 17 C-32 16.34 -32 15.68 -32 15 C-32.66 14.67 -33.32 14.34 -34 14 C-33.01 13.34 -32.02 12.68 -31 12 C-30.63837971 10.67405895 -30.30271961 9.34061543 -30 8 C-29.34 7.67 -28.68 7.34 -28 7 C-29.32 5.02 -30.64 3.04 -32 1 C-27.79174109 0.83141856 -23.58338219 0.66547305 -19.375 0.5 C-18.18519531 0.45230469 -16.99539062 0.40460938 -15.76953125 0.35546875 C-14.61582031 0.31035156 -13.46210938 0.26523438 -12.2734375 0.21875 C-10.68668213 0.1559082 -10.68668213 0.1559082 -9.06787109 0.09179688 C-6.04315023 0.00129114 -3.02586917 -0.01586301 0 0 Z " fill="#E4ECE6" transform="translate(175,89)"/> <path d="M0 0 C3.68266103 0.59950296 7.34543185 1.24758891 11 2 C11 3.32 11 4.64 11 6 C12.65 6 14.3 6 16 6 C15.01 5.01 14.02 4.02 13 3 C15.31 3.33 17.62 3.66 20 4 C19.25 6.9375 19.25 6.9375 18 10 C14.91323116 11.59660457 12.27425398 10.79644016 9 10 C8.67 10 8.34 10 8 10 C7.34 12.64 6.68 15.28 6 18 C5.01 18 4.02 18 3 18 C2.67 19.98 2.34 21.96 2 24 C3.65 24.33 5.3 24.66 7 25 C6.01 25.99 5.02 26.98 4 28 C2.02 27.34 0.04 26.68 -2 26 C-2.33 26.66 -2.66 27.32 -3 28 C-4.32 27.67 -5.64 27.34 -7 27 C-6.67 26.34 -6.34 25.68 -6 25 C-6.66 24.01 -7.32 23.02 -8 22 C-8 21.34 -8 20.68 -8 20 C-6.68 20 -5.36 20 -4 20 C-5.32 19.34 -6.64 18.68 -8 18 C-7.34 18 -6.68 18 -6 18 C-4.98459888 13.89776415 -4.98459888 13.89776415 -6 10 C-4.68 10 -3.36 10 -2 10 C-2 10.66 -2 11.32 -2 12 C-1.4225 11.62875 -0.845 11.2575 -0.25 10.875 C2 10 2 10 4.25 10.875 C4.8275 11.24625 5.405 11.6175 6 12 C6 11.34 6 10.68 6 10 C4.68 9.67 3.36 9.34 2 9 C2.33 7.35 2.66 5.7 3 4 C1.68 5.65 0.36 7.3 -1 9 C-3.97 8.505 -3.97 8.505 -7 8 C-7 6.68 -7 5.36 -7 4 C-6.34 4 -5.68 4 -5 4 C-4.67 3.01 -4.34 2.02 -4 1 C-3.34 1.33 -2.68 1.66 -2 2 C-2.33 2.66 -2.66 3.32 -3 4 C-2.34 4.33 -1.68 4.66 -1 5 C-1 4.34 -1 3.68 -1 3 C-0.34 3 0.32 3 1 3 C0.67 2.01 0.34 1.02 0 0 Z " fill="#7F7060" transform="translate(131,35)"/> <path d="M0 0 C0.66 0 1.32 0 2 0 C1.39305845 3.15330554 0.3583335 5.18888867 -1.5625 7.75 C-2.24505859 8.67039062 -2.24505859 8.67039062 -2.94140625 9.609375 C-3.29074219 10.06828125 -3.64007813 10.5271875 -4 11 C-2.8553125 9.8553125 -2.8553125 9.8553125 -1.6875 8.6875 C-0.800625 7.800625 0.08625 6.91375 1 6 C1.8353125 5.1028125 1.8353125 5.1028125 2.6875 4.1875 C4 3 4 3 6 3 C5.34 4.65 4.68 6.3 4 8 C4.928125 7.67 5.85625 7.34 6.8125 7 C10 6 10 6 13 6 C13.2475 7.8871875 13.2475 7.8871875 13.5 9.8125 C14.15736595 12.58422955 14.46607963 13.66548254 16.9140625 15.19921875 C18.93152544 15.92992529 20.90667445 16.5326529 23 17 C23 17.66 23 18.32 23 19 C22.25234375 18.97679688 21.5046875 18.95359375 20.734375 18.9296875 C19.74953125 18.91164063 18.7646875 18.89359375 17.75 18.875 C16.77546875 18.85179688 15.8009375 18.82859375 14.796875 18.8046875 C12.03292622 18.81003166 12.03292622 18.81003166 9.96875 20.0625 C7.25352036 21.35546649 5.63626981 20.80859022 2.75 20.125 C1.85796875 19.92132813 0.9659375 19.71765625 0.046875 19.5078125 C-0.62859375 19.34023437 -1.3040625 19.17265625 -2 19 C-2 18.34 -2 17.68 -2 17 C-4.31 16.34 -6.62 15.68 -9 15 C-7.61624869 11.16009012 -5.83690651 8.02947436 -3.5 4.6875 C-2.8915625 3.80449219 -2.283125 2.92148438 -1.65625 2.01171875 C-1.1096875 1.34785156 -0.563125 0.68398437 0 0 Z " fill="#41753B" transform="translate(108,93)"/> <path d="M0 0 C1.7074998 1.28062485 3.37373596 2.61767557 5 4 C5 4.66 5 5.32 5 6 C6.5159375 6.309375 6.5159375 6.309375 8.0625 6.625 C12.54948857 7.88868249 15.9123725 10.54636195 19 14 C19 14.66 19 15.32 19 16 C19.66 16.33 20.32 16.66 21 17 C19.02 19.97 19.02 19.97 17 23 C9.42251879 18.30987623 2.14717492 13.3223643 -5 8 C-3.7367158 4.64405806 -2.74084921 2.36709704 0 0 Z " fill="#143167" transform="translate(102,74)"/> <path d="M0 0 C0.66 0.33 1.32 0.66 2 1 C1.34 1.66 0.68 2.32 0 3 C-0.14503488 9.39362091 1.50626052 15.82587682 3 22 C-2.37992836 21.66009167 -6.53273547 21.31442207 -11 18 C-10.34 18.99 -9.68 19.98 -9 21 C-8.34 21 -7.68 21 -7 21 C-7.33 22.32 -7.66 23.64 -8 25 C-8.99 25 -9.98 25 -11 25 C-11.66 22.36 -12.32 19.72 -13 17 C-15.31 17.66 -17.62 18.32 -20 19 C-20.66 18.01 -21.32 17.02 -22 16 C-17.18615099 12.18211975 -11.89352231 12.29932075 -6 12 C-6 9.69 -6 7.38 -6 5 C-6.66 4.67 -7.32 4.34 -8 4 C-5.32521756 2.3372974 -3.0004856 1.00016187 0 0 Z " fill="#F9F9F9" transform="translate(109,27)"/> <path d="M0 0 C5.26668613 0.97616585 9.00985514 4.34020669 13.25 7.4375 C14.09046875 8.03626953 14.9309375 8.63503906 15.796875 9.25195312 C16.98796875 10.11530273 16.98796875 10.11530273 18.203125 10.99609375 C18.93176758 11.52388428 19.66041016 12.0516748 20.41113281 12.59545898 C20.93545898 13.05895752 21.45978516 13.52245605 22 14 C22 14.66 22 15.32 22 16 C21.01 16 20.02 16 19 16 C18.67 16.99 18.34 17.98 18 19 C17.01 19.33 16.02 19.66 15 20 C16 18 17 16 18 14 C17.2575 14.7425 16.515 15.485 15.75 16.25 C13.5 18.5 11.25 20.75 9 23 C8.34 22.67 7.68 22.34 7 22 C7.42152344 21.45730469 7.84304687 20.91460937 8.27734375 20.35546875 C8.82519531 19.64003906 9.37304688 18.92460938 9.9375 18.1875 C10.48277344 17.47980469 11.02804688 16.77210937 11.58984375 16.04296875 C13.16856248 13.95874948 13.16856248 13.95874948 14 11 C13.34 11 12.68 11 12 11 C11.74476562 11.55171875 11.48953125 12.1034375 11.2265625 12.671875 C9.80697926 15.36637058 8.13867746 17.76778728 6.375 20.25 C5.74335937 21.14203125 5.11171875 22.0340625 4.4609375 22.953125 C3.97882813 23.62859375 3.49671875 24.3040625 3 25 C2.01 24.67 1.02 24.34 0 24 C3.3 19.38 6.6 14.76 10 10 C9.34 9.67 8.68 9.34 8 9 C7.74476562 9.72574219 7.48953125 10.45148438 7.2265625 11.19921875 C5.93198926 14.1552984 4.39544896 16.30564666 2.375 18.8125 C1.74335937 19.60269531 1.11171875 20.39289063 0.4609375 21.20703125 C-0.02117187 21.79871094 -0.50328125 22.39039062 -1 23 C-1.33 22.01 -1.66 21.02 -2 20 C-0.60050651 17.49026115 0.82628407 15.17830602 2.4375 12.8125 C2.87126953 12.15830078 3.30503906 11.50410156 3.75195312 10.83007812 C4.82545983 9.21391967 5.9115597 7.60613901 7 6 C6.34 6 5.68 6 5 6 C4.773125 6.515625 4.54625 7.03125 4.3125 7.5625 C2.5024447 10.92403127 0.26003596 13.92911144 -2 17 C-2.33 16.01 -2.66 15.02 -3 14 C-1.78515625 11.73828125 -1.78515625 11.73828125 -0.0625 9.3125 C0.50339844 8.50425781 1.06929688 7.69601563 1.65234375 6.86328125 C2.09707031 6.24839844 2.54179688 5.63351563 3 5 C0.87635519 4.77390663 0.87635519 4.77390663 -0.625 6.5 C-1.07875 6.995 -1.5325 7.49 -2 8 C-1.33333333 5.33333333 -0.66666667 2.66666667 0 0 Z " fill="#F5E8EA" transform="translate(96,82)"/> <path d="M0 0 C1.66456547 0.94157239 3.27466073 1.97828354 4.87109375 3.03125 C6.19109375 1.38125 7.51109375 -0.26875 8.87109375 -1.96875 C11.34609375 -1.47375 11.34609375 -1.47375 13.87109375 -0.96875 C13.87109375 -0.30875 13.87109375 0.35125 13.87109375 1.03125 C13.21109375 1.03125 12.55109375 1.03125 11.87109375 1.03125 C11.54109375 2.35125 11.21109375 3.67125 10.87109375 5.03125 C9.55109375 5.36125 8.23109375 5.69125 6.87109375 6.03125 C7.53109375 8.34125 8.19109375 10.65125 8.87109375 13.03125 C6.09628074 11.93632378 3.32651912 10.83084289 0.55859375 9.71875 C-0.22708984 9.41001953 -1.01277344 9.10128906 -1.82226562 8.78320312 C-2.57958984 8.47705078 -3.33691406 8.17089844 -4.1171875 7.85546875 C-4.81368408 7.57791748 -5.51018066 7.30036621 -6.2277832 7.0144043 C-8.31233694 5.93638992 -9.63601594 4.83689748 -11.12890625 3.03125 C-11.12890625 2.37125 -11.12890625 1.71125 -11.12890625 1.03125 C-12.77890625 1.36125 -14.42890625 1.69125 -16.12890625 2.03125 C-16.09771215 4.89859521 -16.09771215 4.89859521 -15.12890625 8.03125 C-12.15127582 10.29450246 -12.15127582 10.29450246 -9.12890625 12.03125 C-9.12890625 12.69125 -9.12890625 13.35125 -9.12890625 14.03125 C-13.04331652 12.72644658 -15.66860576 11.40277289 -18.12890625 8.03125 C-18.37890625 4.28125 -18.37890625 4.28125 -18.12890625 1.03125 C-11.91357032 -2.27477975 -6.57709358 -2.99287928 0 0 Z " fill="#F1EFF0" transform="translate(95.12890625,50.96875)"/> <path d="M0 0 C4.34906427 0.32823127 8.0342632 1.19739236 12 3 C11.01 3.495 11.01 3.495 10 4 C8.46281604 9.98833405 9.13817643 15.96723499 10 22 C7.69 22 5.38 22 3 22 C3 20.68 3 19.36 3 18 C2.34 18 1.68 18 1 18 C-2.63243243 7.05945946 -2.63243243 7.05945946 -2 2 C-1.34 1.34 -0.68 0.68 0 0 Z " fill="#887969" transform="translate(110,28)"/> <path d="M0 0 C0.84114171 1.43294498 1.67265687 2.87154405 2.5 4.3125 C2.9640625 5.11300781 3.428125 5.91351563 3.90625 6.73828125 C5 9 5 9 5 12 C3.37787941 12.52973311 1.75218416 13.04853107 0.125 13.5625 C-0.77992188 13.85253906 -1.68484375 14.14257812 -2.6171875 14.44140625 C-5 15 -5 15 -7 14 C-8.53668865 13.77532169 -10.07968054 13.59203195 -11.625 13.4375 C-12.44226563 13.35371094 -13.25953125 13.26992187 -14.1015625 13.18359375 C-14.72804688 13.12300781 -15.35453125 13.06242187 -16 13 C-16 12.34 -16 11.68 -16 11 C-15.01 11 -14.02 11 -13 11 C-13 9.02 -13 7.04 -13 5 C-12.278125 4.731875 -11.55625 4.46375 -10.8125 4.1875 C-7.95860702 3.06767588 -7.95860702 3.06767588 -5.375 1.375 C-3 0 -3 0 0 0 Z " fill="#B7B7B7" transform="translate(141,71)"/> <path d="M0 0 C1.98 0.66 3.96 1.32 6 2 C6.33 1.34 6.66 0.68 7 0 C7 0.99 7 1.98 7 3 C7.804375 3.309375 8.60875 3.61875 9.4375 3.9375 C12 5 12 5 13 6 C13.41768721 9.67564747 13.21879471 11.59741774 11.4375 14.875 C9 17 9 17 5.375 17.375 C2 17 2 17 0 16 C-2.3329866 15.95977609 -4.66706666 15.95679753 -7 16 C-7.125 13.125 -7.125 13.125 -7 10 C-5 8 -5 8 -3.1171875 7.953125 C2.04512603 8.6366369 6.97424499 9.62933954 12 11 C10.67708855 7.03126566 9.08850262 6.70094963 5.4375 4.8125 C4.42558594 4.28269531 3.41367188 3.75289063 2.37109375 3.20703125 C1.58863281 2.80871094 0.80617188 2.41039062 0 2 C0 1.34 0 0.68 0 0 Z " fill="#AB1937" transform="translate(85,61)"/> <path d="M0 0 C0 1.98 0 3.96 0 6 C-0.65226562 6.02578125 -1.30453125 6.0515625 -1.9765625 6.078125 C-7.73054878 6.45154004 -11.45831771 7.13957005 -16 11 C-16.99 12.485 -16.99 12.485 -18 14 C-21.125 14.1875 -21.125 14.1875 -24 14 C-23.57817695 9.21933879 -21.39260355 6.2257542 -18 3 C-12.5052907 -1.020519 -6.51236217 -0.28452068 0 0 Z " fill="#AF1A39" transform="translate(102,32)"/> <path d="M0 0 C5.76955257 2.43380629 9.39924824 4.82391935 13 10 C13 10.66 13 11.32 13 12 C10.36 12.33 7.72 12.66 5 13 C5.33 11.35 5.66 9.7 6 8 C5.01 8 4.02 8 3 8 C2.67 8.66 2.34 9.32 2 10 C2 9.34 2 8.68 2 8 C1.34 8 0.68 8 0 8 C-0.33 8.99 -0.66 9.98 -1 11 C-1 10.01 -1 9.02 -1 8 C-1.99 8 -2.98 8 -4 8 C-4.66 9.32 -5.32 10.64 -6 12 C-6.99 12 -7.98 12 -9 12 C-9.33 8.7 -9.66 5.4 -10 2 C-6.7 2 -3.4 2 0 2 C0 1.34 0 0.68 0 0 Z " fill="#ABABAB" transform="translate(134,84)"/> <path d="M0 0 C2.86724686 0.57344937 3.8614515 0.8614515 6 3 C8.10820797 2.6814823 8.10820797 2.6814823 10 2 C11.6498007 5.29960141 11.38258361 8.99127884 11.5625 12.625 C11.60568359 13.42679688 11.64886719 14.22859375 11.69335938 15.0546875 C11.79951457 17.0362511 11.90026855 19.01810271 12 21 C10.68 20.34 9.36 19.68 8 19 C8 18.01 8 17.02 8 16 C7.4225 15.773125 6.845 15.54625 6.25 15.3125 C3.21261926 13.54069457 1.81127546 12.04035523 0 9 C-0.32555094 5.96830689 -0.23810803 3.03587743 0 0 Z " fill="#3B793B" transform="translate(81,84)"/> <path d="M0 0 C0.33 1.65 0.66 3.3 1 5 C-12.19107662 11.99127061 -12.19107662 11.99127061 -19 13 C-19.66 12.34 -20.32 11.68 -21 11 C-20.625 8.375 -20.625 8.375 -20 6 C-18.41058594 5.47599609 -18.41058594 5.47599609 -16.7890625 4.94140625 C-15.40101541 4.48185012 -14.01299601 4.02221036 -12.625 3.5625 C-11.57699219 3.21735352 -11.57699219 3.21735352 -10.5078125 2.86523438 C-1.87058424 0 -1.87058424 0 0 0 Z " fill="#B01635" transform="translate(118,16)"/> <path d="M0 0 C0.66 0 1.32 0 2 0 C2.18372036 4.04184793 1.89813257 6.4568192 0 10 C0.33 10.66 0.66 11.32 1 12 C0.67 12.66 0.34 13.32 0 14 C0.99 14.33 1.98 14.66 3 15 C2.67 16.32 2.34 17.64 2 19 C1.01 18.67 0.02 18.34 -1 18 C-0.67 17.01 -0.34 16.02 0 15 C-0.99 15.495 -0.99 15.495 -2 16 C-2 16.66 -2 17.32 -2 18 C-3.32 18.33 -4.64 18.66 -6 19 C-6.5534764 21.07553648 -7 22.84365964 -7 25 C-7.99 25 -8.98 25 -10 25 C-9.95875 24.236875 -9.9175 23.47375 -9.875 22.6875 C-9.77919176 19.77281584 -9.77919176 19.77281584 -12 17 C-11.01 16.67 -10.02 16.34 -9 16 C-9.66 15.34 -10.32 14.68 -11 14 C-11.125 11.375 -11.125 11.375 -11 9 C-10.34 8.67 -9.68 8.34 -9 8 C-8.34 8.33 -7.68 8.66 -7 9 C-7 8.34 -7 7.68 -7 7 C-6.01 7 -5.02 7 -4 7 C-3.34 7.66 -2.68 8.32 -2 9 C-1.34 6.03 -0.68 3.06 0 0 Z " fill="#73583D" transform="translate(121,44)"/> <path d="M0 0 C2.9375 1.1875 2.9375 1.1875 3.9375 3.1875 C5.2575 2.1975 6.5775 1.2075 7.9375 0.1875 C8.88625 0.703125 9.835 1.21875 10.8125 1.75 C12.359375 2.4615625 12.359375 2.4615625 13.9375 3.1875 C14.5975 2.8575 15.2575 2.5275 15.9375 2.1875 C15.6075 3.1775 15.2775 4.1675 14.9375 5.1875 C14.2775 5.1875 13.6175 5.1875 12.9375 5.1875 C12.9375 6.1775 12.9375 7.1675 12.9375 8.1875 C12.2775 8.1875 11.6175 8.1875 10.9375 8.1875 C10.6075 8.8475 10.2775 9.5075 9.9375 10.1875 C9.64875 9.548125 9.36 8.90875 9.0625 8.25 C8.10926549 6.03543921 8.10926549 6.03543921 5.9375 5.1875 C5.9375 5.8475 5.9375 6.5075 5.9375 7.1875 C2.24331799 8.418894 -0.2681261 7.83182764 -4.0625 7.1875 C-4.3925 4.8775 -4.7225 2.5675 -5.0625 0.1875 C-3.0625 -0.8125 -3.0625 -0.8125 0 0 Z " fill="#918478" transform="translate(120.0625,63.8125)"/> <path d="M0 0 C3.60156104 2.05803488 6.88992126 4.24535883 10 7 C10 7.66 10 8.32 10 9 C10.66 9.33 11.32 9.66 12 10 C10.02 12.97 10.02 12.97 8 16 C5.03 14.02 2.06 12.04 -1 10 C-0.67 6.7 -0.34 3.4 0 0 Z " fill="#30466B" transform="translate(111,81)"/> <path d="M0 0 C0.66 0 1.32 0 2 0 C0.6744419 3.62276315 -0.94346955 6.63505348 -3.125 9.8125 C-3.93324219 10.99779297 -3.93324219 10.99779297 -4.7578125 12.20703125 C-5.16773437 12.79871094 -5.57765625 13.39039062 -6 14 C-5.67 14.33 -5.34 14.66 -5 15 C-2.36 11.04 0.28 7.08 3 3 C3.99 3.33 4.98 3.66 6 4 C2.7 8.62 -0.6 13.24 -4 18 C-3.34 18.66 -2.68 19.32 -2 20 C-4.31 20 -6.62 20 -9 20 C-9 13.73 -9 7.46 -9 1 C-8.67 1 -8.34 1 -8 1 C-7.67 3.97 -7.34 6.94 -7 10 C-6.51789063 9.278125 -6.03578125 8.55625 -5.5390625 7.8125 C-4.90742187 6.884375 -4.27578125 5.95625 -3.625 5 C-2.99851562 4.071875 -2.37203125 3.14375 -1.7265625 2.1875 C-1.15679687 1.465625 -0.58703125 0.74375 0 0 Z " fill="#B9A237" transform="translate(101,88)"/> <path d="M0 0 C0.33 0.66 0.66 1.32 1 2 C2.670625 2.37125 2.670625 2.37125 4.375 2.75 C8 4 8 4 9.9375 7 C11 10 11 10 11 12 C9.07058137 13.28627909 7.07960033 14.48111347 5.0625 15.625 C3.40927734 16.57246094 3.40927734 16.57246094 1.72265625 17.5390625 C-1 19 -1 19 -2 19 C-2 17.02 -2 15.04 -2 13 C0 13 2 13 4 13 C4 12.01 4 11.02 4 10 C4 9.67 4 9.34 4 9 C0.535 7.02 0.535 7.02 -3 5 C-2.34 4.67 -1.68 4.34 -1 4 C-0.34786708 1.97536745 -0.34786708 1.97536745 0 0 Z " fill="#5B4C3D" transform="translate(129,59)"/> <path d="M0 0 C5.67276511 -0.29341888 8.99067246 -0.00559652 14 3 C14.99 2.34 15.98 1.68 17 1 C18.97265625 0.953125 18.97265625 0.953125 21.0625 1.25 C21.75472656 1.33765625 22.44695312 1.4253125 23.16015625 1.515625 C25 2 25 2 27 4 C24 6 24 6 21.3125 5.625 C20.1678125 5.315625 20.1678125 5.315625 19 5 C18.67 5.66 18.34 6.32 18 7 C17.34 7 16.68 7 16 7 C16 6.34 16 5.68 16 5 C15.236875 5.33 14.47375 5.66 13.6875 6 C11 7 11 7 8 7 C8 6.34 8 5.68 8 5 C6.68 5.33 5.36 5.66 4 6 C2.68 4.02 1.36 2.04 0 0 Z " fill="#F7F8F9" transform="translate(143,90)"/> <path d="M0 0 C1.875 0.3125 1.875 0.3125 4 1 C4.66 1.99 5.32 2.98 6 4 C4.02 4.99 4.02 4.99 2 6 C2 6.94875 2 7.8975 2 8.875 C2 10.58333333 2 12.29166667 2 14 C2.7425 14.9590625 2.7425 14.9590625 3.5 15.9375 C5 18 5 18 5 21 C-0.625 24 -0.625 24 -4 24 C-6.1875 23 -6.1875 23 -8 22 C-4.81237635 19.87491756 -2.73487777 19.4979837 1 19 C0.67 18.34 0.34 17.68 0 17 C-1.88287147 11.3513856 -1.14901675 5.74508376 0 0 Z " fill="#FFE92F" transform="translate(145,64)"/> <path d="M0 0 C1.76462683 3.08809695 2 4.23312136 2 8 C2.66 8.33 3.32 8.66 4 9 C3.67 10.65 3.34 12.3 3 14 C2.34 13.67 1.68 13.34 1 13 C0.67 13.99 0.34 14.98 0 16 C-0.66 15.67 -1.32 15.34 -2 15 C-1.67 13.68 -1.34 12.36 -1 11 C-1.66 11 -2.32 11 -3 11 C-3 12.98 -3 14.96 -3 17 C-3.66 17 -4.32 17 -5 17 C-5.45375 17.495 -5.9075 17.99 -6.375 18.5 C-8 20 -8 20 -12 20 C-12.33 18.68 -12.66 17.36 -13 16 C-11.68 15.34 -10.36 14.68 -9 14 C-9.66 14 -10.32 14 -11 14 C-11 13.34 -11 12.68 -11 12 C-9.68 12 -8.36 12 -7 12 C-7 12.99 -7 13.98 -7 15 C-6.67 14.34 -6.34 13.68 -6 13 C-5.34 13 -4.68 13 -4 13 C-4 10.69 -4 8.38 -4 6 C-2.68 6.66 -1.36 7.32 0 8 C0 7.34 0 6.68 0 6 C-0.66 6 -1.32 6 -2 6 C-1.34 4.02 -0.68 2.04 0 0 Z " fill="#CDE1CD" transform="translate(151,100)"/> <path d="M0 0 C1.32 0.33 2.64 0.66 4 1 C3.34 1 2.68 1 2 1 C2 3.31 2 5.62 2 8 C3.32 8 4.64 8 6 8 C6 7.01 6 6.02 6 5 C6.66 5 7.32 5 8 5 C8 5.99 8 6.98 8 8 C8.66 8 9.32 8 10 8 C10 5.69 10 3.38 10 1 C9.34 0.67 8.68 0.34 8 0 C10.64 0 13.28 0 16 0 C17.40931402 2.32122308 18.09285391 3.45835222 17.625 6.1875 C17.41875 6.785625 17.2125 7.38375 17 8 C17 8.33 17 8.66 17 9 C11.39 9 5.78 9 0 9 C0 6.03 0 3.06 0 0 Z " fill="#556A92" transform="translate(109,126)"/> <path d="M0 0 C0.66 0 1.32 0 2 0 C2 0.99 2 1.98 2 3 C4.97 3.33 7.94 3.66 11 4 C7.23312136 5.88343932 5.97041037 6.22057835 2 6 C1.9175 6.70125 1.835 7.4025 1.75 8.125 C0.38931037 13.34097692 -2.48629975 17.09833555 -7 20 C-7.66 19.67 -8.32 19.34 -9 19 C-8 17 -8 17 -5 16 C-3.60287726 14.04402816 -2.26220093 12.04563599 -1 10 C-1.825 9.2575 -2.65 8.515 -3.5 7.75 C-6 5 -6 5 -6 1 C-4.02 1.66 -2.04 2.32 0 3 C0 2.01 0 1.02 0 0 Z " fill="#BC901D" transform="translate(123,81)"/> <path d="M0 0 C-0.33 0.99 -0.66 1.98 -1 3 C-1.99 3 -2.98 3 -4 3 C-3.67 3.99 -3.34 4.98 -3 6 C-3.99 6.495 -3.99 6.495 -5 7 C-4.67 7.66 -4.34 8.32 -4 9 C-4.66 9 -5.32 9 -6 9 C-6 9.66 -6 10.32 -6 11 C-6.66 11 -7.32 11 -8 11 C-8.33 11.66 -8.66 12.32 -9 13 C-9 12.01 -9 11.02 -9 10 C-9.804375 9.731875 -10.60875 9.46375 -11.4375 9.1875 C-12.283125 8.795625 -13.12875 8.40375 -14 8 C-14.33 7.01 -14.66 6.02 -15 5 C-13.88625 5.185625 -12.7725 5.37125 -11.625 5.5625 C-8.17431139 6.31680657 -8.17431139 6.31680657 -6 5 C-9.78858771 2.42376035 -12.64819436 3.20876261 -17 4 C-20.10551666 4 -21.35261084 3.4606285 -24 2 C-24 1.67 -24 1.34 -24 1 C-21.125109 0.8312433 -18.25011104 0.66492885 -15.375 0.5 C-14.56675781 0.45230469 -13.75851563 0.40460938 -12.92578125 0.35546875 C-8.61012369 0.10986222 -4.32496331 -0.05598658 0 0 Z " fill="#C3CAD7" transform="translate(175,89)"/> <path d="M0 0 C1.32 0.33 2.64 0.66 4 1 C4 2.32 4 3.64 4 5 C4.66 3.35 5.32 1.7 6 0 C7.98 0 9.96 0 12 0 C12.09765625 6.15234375 12.09765625 6.15234375 12 8 C11 9 11 9 8.49609375 9.09765625 C6.98208984 9.08025391 6.98208984 9.08025391 5.4375 9.0625 C4.42558594 9.05347656 3.41367188 9.04445312 2.37109375 9.03515625 C1.58863281 9.02355469 0.80617187 9.01195312 0 9 C0 6.03 0 3.06 0 0 Z " fill="#7586A6" transform="translate(143,126)"/> <path d="M0 0 C1.85625 0.556875 1.85625 0.556875 3.75 1.125 C7.36435724 2.04605764 8.75307696 1.90336868 12 0 C15.39472417 0.33947242 18.03078942 1.35043857 21 3 C21 3.66 21 4.32 21 5 C20.43152344 5.04898438 19.86304688 5.09796875 19.27734375 5.1484375 C14.28918871 5.63143081 9.77400422 6.47638163 5 8 C5 7.34 5 6.68 5 6 C3.35 5.67 1.7 5.34 0 5 C-0.33 4.01 -0.66 3.02 -1 2 C-0.67 1.34 -0.34 0.68 0 0 Z " fill="#614D3A" transform="translate(139,43)"/> <path d="M0 0 C7.48071749 4.34529148 7.48071749 4.34529148 8.75390625 8.40234375 C8.97531367 10.62696116 9.07940124 12.76684001 9 15 C5.95578511 14.18820936 3.56439194 13.47032662 1.125 11.4375 C-0.59791187 7.70452428 -0.23338972 4.04542182 0 0 Z " fill="#FCFCFC" transform="translate(104,64)"/> <path d="M0 0 C0.66 0 1.32 0 2 0 C1.39305845 3.15330554 0.3583335 5.18888867 -1.5625 7.75 C-2.24505859 8.67039062 -2.24505859 8.67039062 -2.94140625 9.609375 C-3.29074219 10.06828125 -3.64007813 10.5271875 -4 11 C-2.8553125 9.8553125 -2.8553125 9.8553125 -1.6875 8.6875 C-0.800625 7.800625 0.08625 6.91375 1 6 C1.8353125 5.1028125 1.8353125 5.1028125 2.6875 4.1875 C4 3 4 3 6 3 C5.34 4.65 4.68 6.3 4 8 C4.66 8 5.32 8 6 8 C6 8.66 6 9.32 6 10 C5.16855469 10.29003906 5.16855469 10.29003906 4.3203125 10.5859375 C3.59585938 10.84632812 2.87140625 11.10671875 2.125 11.375 C1.40570313 11.63023438 0.68640625 11.88546875 -0.0546875 12.1484375 C-2.18157994 12.93877783 -2.18157994 12.93877783 -4 15 C-6.625 14.625 -6.625 14.625 -9 14 C-7.87540329 12.22891052 -6.75030797 10.45813764 -5.625 8.6875 C-4.99851562 7.70136719 -4.37203125 6.71523437 -3.7265625 5.69921875 C-2.50348387 3.78712071 -1.2590644 1.8885966 0 0 Z " fill="#C5713A" transform="translate(108,93)"/> <path d="M0 0 C2.97 0.33 5.94 0.66 9 1 C9.98612849 4.94451397 9.91655666 6.43186434 9.0625 10.25 C8.86785156 11.14203125 8.67320312 12.0340625 8.47265625 12.953125 C8.31667969 13.62859375 8.16070312 14.3040625 8 15 C5.31874582 12.61753661 3.88576541 10.1454496 2.3125 6.9375 C1.87550781 6.05964844 1.43851563 5.18179688 0.98828125 4.27734375 C0 2 0 2 0 0 Z " fill="#F9F8EF" transform="translate(136,61)"/> <path d="M0 0 C6.39534884 0.69767442 6.39534884 0.69767442 9 2 C9 2.66 9 3.32 9 4 C9.66 4.33 10.32 4.66 11 5 C10.01 6.485 10.01 6.485 9 8 C9 7.01 9 6.02 9 5 C8.34 5 7.68 5 7 5 C7.66 6.98 8.32 8.96 9 11 C6.625 10.6875 6.625 10.6875 4 10 C3.34 9.01 2.68 8.02 2 7 C-0.56282742 6.27034634 -0.56282742 6.27034634 -3 6 C-1.125 1.125 -1.125 1.125 0 0 Z " fill="#DDE8DD" transform="translate(97,108)"/> <path d="M0 0 C3.68266103 0.59950296 7.34543185 1.24758891 11 2 C10.67 3.32 10.34 4.64 10 6 C7.03 5.505 7.03 5.505 4 5 C4 4.34 4 3.68 4 3 C1.9754262 4.93254772 0.57894208 6.63158688 -1 9 C-3.97 8.505 -3.97 8.505 -7 8 C-7 6.68 -7 5.36 -7 4 C-6.34 4 -5.68 4 -5 4 C-4.67 3.01 -4.34 2.02 -4 1 C-3.34 1.33 -2.68 1.66 -2 2 C-2.33 2.66 -2.66 3.32 -3 4 C-2.34 4.33 -1.68 4.66 -1 5 C-1 4.34 -1 3.68 -1 3 C-0.34 3 0.32 3 1 3 C0.67 2.01 0.34 1.02 0 0 Z " fill="#968B80" transform="translate(131,35)"/> <path d="M0 0 C1.32 0 2.64 0 4 0 C4.99 2.64 5.98 5.28 7 8 C7.66 7.67 8.32 7.34 9 7 C9.33 6.01 9.66 5.02 10 4 C9.01 4.33 8.02 4.66 7 5 C6.67 3.68 6.34 2.36 6 1 C10.37702633 2.22556737 14.69677317 3.53060547 19 5 C19 5.33 19 5.66 19 6 C16.69 5.67 14.38 5.34 12 5 C11.731875 5.61875 11.46375 6.2375 11.1875 6.875 C10 9 10 9 7 11 C5.82780457 10.21654285 4.66236332 9.42297164 3.5 8.625 C2.52546875 7.96371094 2.52546875 7.96371094 1.53125 7.2890625 C1.0259375 6.86367188 0.520625 6.43828125 0 6 C0 5.34 0 4.68 0 4 C0.66 4 1.32 4 2 4 C2 3.34 2 2.68 2 2 C1.01 1.67 0.02 1.34 -1 1 C-0.67 0.67 -0.34 0.34 0 0 Z " fill="#848383" transform="translate(92,44)"/> <path d="M0 0 C2 2 2 2 2.1875 4.5625 C2 7 2 7 1 8 C-1.74403381 8.24492203 -4.4869967 8.38385297 -7.23828125 8.5234375 C-10.28462043 9.04911413 -11.71491661 9.97002093 -14 12 C-12.02 12.66 -10.04 13.32 -8 14 C-8 14.33 -8 14.66 -8 15 C-13.94 15.495 -13.94 15.495 -20 16 C-20 15.34 -20 14.68 -20 14 C-19.34 14 -18.68 14 -18 14 C-17.79375 13.4225 -17.5875 12.845 -17.375 12.25 C-15.36038579 8.95335856 -13.46442376 7.73221188 -10 6 C-6.6370136 5.67875951 -3.36639552 5.7604936 0 6 C0 4.02 0 2.04 0 0 Z " fill="#C8B7BA" transform="translate(102,32)"/> <path d="M0 0 C0.8353125 1.0828125 0.8353125 1.0828125 1.6875 2.1875 C3.95385929 5.0592739 3.95385929 5.0592739 6.6875 7.5625 C8.88449912 9.87825583 9.65571773 10.90145954 10 14 C8.1875 14.625 8.1875 14.625 6 15 C5.01 14.34 4.02 13.68 3 13 C3.33 12.34 3.66 11.68 4 11 C2.68 10.67 1.36 10.34 0 10 C0 9.01 0 8.02 0 7 C-0.66 6.67 -1.32 6.34 -2 6 C-3.03145371 4.69084721 -4.03542166 3.35917857 -5 2 C-3.35 2 -1.7 2 0 2 C0 1.34 0 0.68 0 0 Z " fill="#DBE6DC" transform="translate(80,90)"/> <path d="M0 0 C2.37447215 0.95996517 4.68997354 1.96842024 6.984375 3.10546875 C6.984375 4.09546875 6.984375 5.08546875 6.984375 6.10546875 C5.19196837 5.99157 3.40042665 5.86399188 1.609375 5.73046875 C0.11277344 5.62605469 0.11277344 5.62605469 -1.4140625 5.51953125 C-4.015625 5.10546875 -4.015625 5.10546875 -6.015625 3.10546875 C-4.695625 2.77546875 -3.375625 2.44546875 -2.015625 2.10546875 C-7.46255814 2.00858654 -12.65467167 1.976847 -18.015625 3.10546875 C-17.685625 2.11546875 -17.355625 1.12546875 -17.015625 0.10546875 C-12.08584045 -2.35942352 -5.1258132 -1.52048086 0 0 Z " fill="#776655" transform="translate(143.015625,30.89453125)"/> <path d="M0 0 C2.5 0.25 2.5 0.25 4.5 2.25 C4.75 4.75 4.75 4.75 4.5 7.25 C2.5 9.25 2.5 9.25 0 9.5 C-2.5 9.25 -2.5 9.25 -4.5 7.25 C-4.75 4.75 -4.75 4.75 -4.5 2.25 C-2.5 0.25 -2.5 0.25 0 0 Z " fill="#49608A" transform="translate(137.5,125.75)"/> <path d="M0 0 C1.32 0.33 2.64 0.66 4 1 C3.34 3.64 2.68 6.28 2 9 C-0.6875 9.3125 -0.6875 9.3125 -4 9 C-7.10164769 6.44975635 -8.72566416 4.82300753 -10 1 C-8.68 1 -7.36 1 -6 1 C-6 1.66 -6 2.32 -6 3 C-5.4225 2.62875 -4.845 2.2575 -4.25 1.875 C-2 1 -2 1 0.25 1.875 C0.8275 2.24625 1.405 2.6175 2 3 C2 2.34 2 1.68 2 1 C1.34 0.67 0.68 0.34 0 0 Z " fill="#94897D" transform="translate(135,44)"/> <path d="M0 0 C2.9375 0.25 2.9375 0.25 6 1 C6.66 1.99 7.32 2.98 8 4 C11.06556598 4.73343428 11.06556598 4.73343428 14 5 C14 5.33 14 5.66 14 6 C5.42 6 -3.16 6 -12 6 C-12 5.67 -12 5.34 -12 5 C-9.03 5 -6.06 5 -3 5 C-2.34 3.68 -1.68 2.36 -1 1 C-0.67 0.67 -0.34 0.34 0 0 Z " fill="#E5CC2C" transform="translate(155,84)"/> <path d="M0 0 C0.53625 0.61875 1.0725 1.2375 1.625 1.875 C4.31103023 4.2782902 6.55414562 5.06022153 10 6 C10 6.66 10 7.32 10 8 C8.87851563 7.96519531 8.87851563 7.96519531 7.734375 7.9296875 C6.74953125 7.91164063 5.7646875 7.89359375 4.75 7.875 C3.77546875 7.85179688 2.8009375 7.82859375 1.796875 7.8046875 C-1.07717415 8.00538926 -2.48385553 8.72130363 -5 10 C-7.75212119 9.96986729 -10.27104753 9.45482541 -13 9 C-13 8.67 -13 8.34 -13 8 C-10.36 7.67 -7.72 7.34 -5 7 C-4.67 5.68 -4.34 4.36 -4 3 C-3.01 3 -2.02 3 -1 3 C-0.67 2.01 -0.34 1.02 0 0 Z " fill="#548554" transform="translate(121,104)"/> <path d="M0 0 C0.99 0 1.98 0 3 0 C3 0.66 3 1.32 3 2 C3.763125 1.67 4.52625 1.34 5.3125 1 C8 0 8 0 11 0 C11 0.66 11 1.32 11 2 C8.36 2.33 5.72 2.66 3 3 C2.67 4.65 2.34 6.3 2 8 C1.030625 8.12375 0.06125 8.2475 -0.9375 8.375 C-1.948125 8.58125 -2.95875 8.7875 -4 9 C-4.33 9.66 -4.66 10.32 -5 11 C-5 10.34 -5 9.68 -5 9 C-5.66 8.67 -6.32 8.34 -7 8 C-6.01 7.34 -5.02 6.68 -4 6 C-3.27617533 3.94074861 -3.27617533 3.94074861 -3 2 C-2.34 2 -1.68 2 -1 2 C-0.67 1.34 -0.34 0.68 0 0 Z " fill="#B0B1B0" transform="translate(148,95)"/> <path d="M0 0 C0 1.98 0 3.96 0 6 C-4.29 6 -8.58 6 -13 6 C-12 3 -12 3 -9.875 1.3125 C-6.39918304 -0.274286 -3.77907627 -0.2222986 0 0 Z " fill="#B30A2C" transform="translate(102,32)"/> <path d="M0 0 C1.65 3.3 3.3 6.6 5 10 C3.02 10.99 3.02 10.99 1 12 C-2 7.375 -2 7.375 -2 4 C-3.98 4.66 -5.96 5.32 -8 6 C-8 5.01 -8 4.02 -8 3 C-5.11165997 0.89229241 -3.61537605 0 0 0 Z " fill="#D8D7D6" transform="translate(141,71)"/> <path d="M0 0 C0 0.66 0 1.32 0 2 C-2.31 2 -4.62 2 -7 2 C-7.33 2.99 -7.66 3.98 -8 5 C-8.33 4.01 -8.66 3.02 -9 2 C-10.65 2.33 -12.3 2.66 -14 3 C-13.9688059 5.86734521 -13.9688059 5.86734521 -13 9 C-10.02236957 11.26325246 -10.02236957 11.26325246 -7 13 C-7 13.66 -7 14.32 -7 15 C-10.91441027 13.69519658 -13.53969951 12.37152289 -16 9 C-16.25 5.25 -16.25 5.25 -16 2 C-10.23826317 -1.06475363 -6.37259801 -1.19937786 0 0 Z " fill="#C1B0B4" transform="translate(93,50)"/> <path d="M0 0 C0.66 0.33 1.32 0.66 2 1 C1.67 1.33 1.34 1.66 1 2 C0.95936168 3.66617115 0.957279 5.33388095 1 7 C2.98 7 4.96 7 7 7 C7 7.66 7 8.32 7 9 C6.01 9 5.02 9 4 9 C4.33 10.65 4.66 12.3 5 14 C4.01 14.495 4.01 14.495 3 15 C3 15.66 3 16.32 3 17 C1.35 17 -0.3 17 -2 17 C-1.34 15.02 -0.68 13.04 0 11 C-0.33 10.67 -0.66 10.34 -1 10 C-1.0979057 8.50261876 -1.12974864 7.00057108 -1.125 5.5 C-1.12757812 4.6853125 -1.13015625 3.870625 -1.1328125 3.03125 C-1 1 -1 1 0 0 Z " fill="#D2CFD0" transform="translate(78,69)"/> <path d="M0 0 C0.66 0.33 1.32 0.66 2 1 C1.01 2.485 1.01 2.485 0 4 C0.66 4.33 1.32 4.66 2 5 C1.67 5.33 1.34 5.66 1 6 C1.99 6.33 2.98 6.66 4 7 C4 7.66 4 8.32 4 9 C3.236875 8.814375 2.47375 8.62875 1.6875 8.4375 C-1.08967375 7.77180827 -1.08967375 7.77180827 -4 9 C-4 8.34 -4 7.68 -4 7 C-4.99 7.33 -5.98 7.66 -7 8 C-6.04134491 10.33075929 -6.04134491 10.33075929 -3 12 C-3.639375 12.12375 -4.27875 12.2475 -4.9375 12.375 C-5.618125 12.58125 -6.29875 12.7875 -7 13 C-7.33 13.66 -7.66 14.32 -8 15 C-8.66 15 -9.32 15 -10 15 C-9.67 11.7 -9.34 8.4 -9 5 C-8.071875 5.103125 -7.14375 5.20625 -6.1875 5.3125 C-5.135625 5.209375 -4.08375 5.10625 -3 5 C-1.0645852 2.60943058 -1.0645852 2.60943058 0 0 Z " fill="#6E5740" transform="translate(133,38)"/> <path d="M0 0 C3.96 0 7.92 0 12 0 C10.515 1.485 10.515 1.485 9 3 C8.67 2.67 8.34 2.34 8 2 C7.54625 2.825 7.0925 3.65 6.625 4.5 C6.08875 5.325 5.5525 6.15 5 7 C4.34 7 3.68 7 3 7 C3 7.66 3 8.32 3 9 C3.66 9 4.32 9 5 9 C5 9.66 5 10.32 5 11 C3.68 10.67 2.36 10.34 1 10 C0.67 6.7 0.34 3.4 0 0 Z " fill="#F4F8F4" transform="translate(151,98)"/> <path d="M0 0 C0.99 0 1.98 0 3 0 C3 0.99 3 1.98 3 3 C3.66 3.33 4.32 3.66 5 4 C5.33 3.01 5.66 2.02 6 1 C6 1.66 6 2.32 6 3 C6.66 3 7.32 3 8 3 C8.33 4.32 8.66 5.64 9 7 C7.02 7.99 7.02 7.99 5 9 C4.67 8.01 4.34 7.02 4 6 C2.35 5.67 0.7 5.34 -1 5 C-1.33 6.65 -1.66 8.3 -2 10 C-2.99 10 -3.98 10 -5 10 C-5 8.02 -5 6.04 -5 4 C-4.34 4 -3.68 4 -3 4 C-2.67 3.34 -2.34 2.68 -2 2 C-1.01 2.33 -0.02 2.66 1 3 C0.67 2.01 0.34 1.02 0 0 Z " fill="#705840" transform="translate(118,59)"/> <path d="M0 0 C1.98 0.66 3.96 1.32 6 2 C6.33 1.34 6.66 0.68 7 0 C7 0.99 7 1.98 7 3 C7.804375 3.309375 8.60875 3.61875 9.4375 3.9375 C12 5 12 5 13 6 C13.375 8.75 13.375 8.75 13 12 C10.5 14.875 10.5 14.875 8 17 C8.33 15.02 8.66 13.04 9 11 C9.99 11 10.98 11 12 11 C10.67708855 7.03126566 9.08850262 6.70094963 5.4375 4.8125 C3.91962891 4.01779297 3.91962891 4.01779297 2.37109375 3.20703125 C1.58863281 2.80871094 0.80617188 2.41039062 0 2 C0 1.34 0 0.68 0 0 Z " fill="#B81335" transform="translate(85,61)"/> <path d="M0 0 C1.41655793 -0.0272415 2.83327045 -0.04650467 4.25 -0.0625 C5.43335937 -0.07990234 5.43335937 -0.07990234 6.640625 -0.09765625 C8.90691002 -0.00385306 10.8288895 0.36758937 13 1 C12.02391783 3.92824652 10.89213369 5.61426621 9 8 C8.67 7.01 8.34 6.02 8 5 C7.34 5.66 6.68 6.32 6 7 C6 6.01 6 5.02 6 4 C5.34 4 4.68 4 4 4 C3.67 4.99 3.34 5.98 3 7 C3 6.01 3 5.02 3 4 C2.34 4 1.68 4 1 4 C0.67 2.68 0.34 1.36 0 0 Z " fill="#E8F0E8" transform="translate(104,113)"/> <path d="M0 0 C0.33 0 0.66 0 1 0 C1 2.66666667 1 5.33333333 1 8 C0.34 8 -0.32 8 -1 8 C-1.66 9.65 -2.32 11.3 -3 13 C-3.66 13 -4.32 13 -5 13 C-5.33 13.99 -5.66 14.98 -6 16 C-6.9991932 12.89139894 -6.83036989 11.11388708 -6 8 C-6.33 7.34 -6.66 6.68 -7 6 C-6.67 5.34 -6.34 4.68 -6 4 C-2.9375 3.375 -2.9375 3.375 0 3 C0 2.01 0 1.02 0 0 Z " fill="#F6F9F6" transform="translate(150,100)"/> <path d="M0 0 C0.33 0.66 0.66 1.32 1 2 C2.32 2 3.64 2 5 2 C5.66 1.34 6.32 0.68 7 0 C9 3 9 3 9 7 C7.02 6.34 5.04 5.68 3 5 C2.67 5.99 2.34 6.98 2 8 C1.34 7.34 0.68 6.68 0 6 C-0.99 6.495 -0.99 6.495 -2 7 C-2.33 5.68 -2.66 4.36 -3 3 C-2.01 3 -1.02 3 0 3 C0 2.01 0 1.02 0 0 Z " fill="#CEA131" transform="translate(114,77)"/> <path d="M0 0 C2.67927341 4.01891012 2.15601248 6.24161923 2 11 C-0.97 10.505 -0.97 10.505 -4 10 C-4 7.66666667 -4 5.33333333 -4 3 C-3.34 3 -2.68 3 -2 3 C-2 2.34 -2 1.68 -2 1 C-1.34 0.67 -0.68 0.34 0 0 Z " fill="#366C37" transform="translate(89,88)"/> <path d="M0 0 C0.99 0 1.98 0 3 0 C4.6498007 3.29960141 4.38258361 6.99127884 4.5625 10.625 C4.60568359 11.42679688 4.64886719 12.22859375 4.69335938 13.0546875 C4.79951457 15.0362511 4.90026855 17.01810271 5 19 C3.68 18.34 2.36 17.68 1 17 C1 16.01 1 15.02 1 14 C0.01 13.67 -0.98 13.34 -2 13 C-1.01 12.34 -0.02 11.68 1 11 C2.06546953 7.8035914 2.07427838 5.34252724 2 2 C1.34 2 0.68 2 0 2 C0 1.34 0 0.68 0 0 Z " fill="#458045" transform="translate(88,86)"/> <path d="M0 0 C3.40667322 0.44824648 5.07914607 1.05276405 8 3 C8 3.66 8 4.32 8 5 C6.68 5.33 5.36 5.66 4 6 C3.4465236 8.07553648 3 9.84365964 3 12 C2.01 12 1.02 12 0 12 C0.04125 11.236875 0.0825 10.47375 0.125 9.6875 C0.22080824 6.77281584 0.22080824 6.77281584 -2 4 C-1.01 3.67 -0.02 3.34 1 3 C0.34 2.34 -0.32 1.68 -1 1 C-0.67 0.67 -0.34 0.34 0 0 Z " fill="#A59C94" transform="translate(111,57)"/> <path d="M0 0 C5.75 -0.125 5.75 -0.125 8 1 C7.67 2.98 7.34 4.96 7 7 C3 7 3 7 1.3125 5.625 C0 4 0 4 -1 2 C-0.67 1.34 -0.34 0.68 0 0 Z " fill="#A30A29" transform="translate(86,71)"/> <path d="M0 0 C0.66 0 1.32 0 2 0 C3.125 5.625 3.125 5.625 2 9 C-0.375 9.625 -0.375 9.625 -3 10 C-3.66 9.34 -4.32 8.68 -5 8 C-4.625 5.875 -4.625 5.875 -4 4 C-3.67 4.33 -3.34 4.66 -3 5 C-2.34 4.01 -1.68 3.02 -1 2 C-0.67 2.33 -0.34 2.66 0 3 C0 2.01 0 1.02 0 0 Z " fill="#705A45" transform="translate(143,53)"/> <path d="M0 0 C1.32 0 2.64 0 4 0 C4 0.99 4 1.98 4 3 C4.33 2.34 4.66 1.68 5 1 C5.99 1.33 6.98 1.66 8 2 C8 2.99 8 3.98 8 5 C7.34 5 6.68 5 6 5 C5.54625 5.495 5.0925 5.99 4.625 6.5 C3 8 3 8 -1 8 C-1.33 6.68 -1.66 5.36 -2 4 C-0.68 3.34 0.64 2.68 2 2 C1.34 2 0.68 2 0 2 C0 1.34 0 0.68 0 0 Z " fill="#DAE8DA" transform="translate(140,112)"/> <path d="M0 0 C0.99 0 1.98 0 3 0 C3.33 0.66 3.66 1.32 4 2 C5.32 1.34 6.64 0.68 8 0 C8 0.66 8 1.32 8 2 C8.66 2.66 9.32 3.32 10 4 C9.625 6.625 9.625 6.625 9 9 C4.56620325 6.78310162 2.53363068 4.22271781 0 0 Z " fill="#725F4C" transform="translate(102,60)"/> <path d="M0 0 C2.0625 0.4375 2.0625 0.4375 4 1 C3.34 1 2.68 1 2 1 C2 1.99 2 2.98 2 4 C2.66 4.33 3.32 4.66 4 5 C3.67 4.01 3.34 3.02 3 2 C4.32 2 5.64 2 7 2 C7 2.99 7 3.98 7 5 C6.34 5 5.68 5 5 5 C5 5.99 5 6.98 5 8 C3.02 8 1.04 8 -1 8 C-1.04241723 5.66705225 -1.04092937 3.33297433 -1 1 C-0.67 0.67 -0.34 0.34 0 0 Z " fill="#765C43" transform="translate(110,30)"/> <path d="M0 0 C1.65 0.33 3.3 0.66 5 1 C5 1.66 5 2.32 5 3 C4.34 3 3.68 3 3 3 C2.67 4.32 2.34 5.64 2 7 C1.360625 7.12375 0.72125 7.2475 0.0625 7.375 C-0.9584375 7.684375 -0.9584375 7.684375 -2 8 C-2.33 8.66 -2.66 9.32 -3 10 C-3.75 7.8125 -3.75 7.8125 -4 5 C-2.0625 2.1875 -2.0625 2.1875 0 0 Z " fill="#DDDDDD" transform="translate(104,49)"/> <path d="M0 0 C0.33 0 0.66 0 1 0 C1.36923077 5.53846154 1.36923077 5.53846154 -0.5 7.875 C-0.995 8.24625 -1.49 8.6175 -2 9 C-2.33 8.01 -2.66 7.02 -3 6 C-3.99 6 -4.98 6 -6 6 C-6 6.66 -6 7.32 -6 8 C-6.99 8 -7.98 8 -9 8 C-10.68798827 9.43750191 -10.68798827 9.43750191 -12 11 C-11.625 8.0625 -11.625 8.0625 -11 5 C-10.34 4.67 -9.68 4.34 -9 4 C-8.34 3.01 -7.68 2.02 -7 1 C-7 2.32 -7 3.64 -7 5 C-4.69 5 -2.38 5 0 5 C0 3.35 0 1.7 0 0 Z " fill="#4D3C2B" transform="translate(120,45)"/> <path d="M0 0 C0.99 0.33 1.98 0.66 3 1 C1.38012331 3.31624435 -0.24555743 5.62800082 -1.875 7.9375 C-2.33519531 8.59685547 -2.79539062 9.25621094 -3.26953125 9.93554688 C-6.7734375 14.88671875 -6.7734375 14.88671875 -9 16 C-8.37695259 11.92546771 -6.23467379 9.10460299 -3.9375 5.75 C-3.20402344 4.67234375 -2.47054687 3.5946875 -1.71484375 2.484375 C-1.14894531 1.66453125 -0.58304688 0.8446875 0 0 Z " fill="#C52444" transform="translate(104,91)"/> <path d="M0 0 C2.64 0 5.28 0 8 0 C7.67 0.99 7.34 1.98 7 3 C7 2.34 7 1.68 7 1 C6.34 1 5.68 1 5 1 C4.67 2.65 4.34 4.3 4 6 C3.01 6.33 2.02 6.66 1 7 C0.34 6.67 -0.32 6.34 -1 6 C-0.67 4.02 -0.34 2.04 0 0 Z " fill="#7D7D7E" transform="translate(140,96)"/> <path d="M0 0 C1.7074998 1.28062485 3.37373596 2.61767557 5 4 C5 4.66 5 5.32 5 6 C5.66 6 6.32 6 7 6 C6.67 6.99 6.34 7.98 6 9 C4.02 8.34 2.04 7.68 0 7 C0 6.01 0 5.02 0 4 C-0.99 3.67 -1.98 3.34 -3 3 C-2.01 2.01 -1.02 1.02 0 0 Z " fill="#122E5E" transform="translate(102,74)"/> <path d="M0 0 C2.64 0 5.28 0 8 0 C8.33 0.99 8.66 1.98 9 3 C9.99 3.33 10.98 3.66 12 4 C9.3260876 4.89130413 6.76276177 5.47731534 4 6 C2.68 4.02 1.36 2.04 0 0 Z " fill="#DCE0E7" transform="translate(143,90)"/> <path d="M0 0 C0 0.99 0 1.98 0 3 C-0.61875 3.28875 -1.2375 3.5775 -1.875 3.875 C-4.13325765 4.93720042 -4.13325765 4.93720042 -6 7 C-6.99 6.67 -7.98 6.34 -9 6 C-9.66 6.66 -10.32 7.32 -11 8 C-11 6.02 -11 4.04 -11 2 C-8.50935112 1.31292445 -6.62113708 1 -4 1 C-2.66018514 0.6937566 -1.32488113 0.36548445 0 0 Z " fill="#9B9B9B" transform="translate(139,74)"/> <path d="M0 0 C4 2 8 4 12 6 C11.67 6.99 11.34 7.98 11 9 C6.5221629 7.75037104 3.35725691 6.25851406 0 3 C0 2.01 0 1.02 0 0 Z " fill="#8D0722" transform="translate(80,54)"/> <path d="M0 0 C-1.86286526 2.79429788 -3.4230235 4.8647909 -6 7 C-8.75 7.25 -8.75 7.25 -11 7 C-9.54588235 2.39529412 -9.54588235 2.39529412 -7.1875 0.6875 C-4.68810383 -0.09802451 -2.60506718 -0.14472595 0 0 Z " fill="#AA1030" transform="translate(95,32)"/> <path d="M0 0 C2.97 0.33 5.94 0.66 9 1 C9 2.98 9 4.96 9 7 C8.34 7 7.68 7 7 7 C6.67 7.99 6.34 8.98 6 10 C5.34 9.67 4.68 9.34 4 9 C4 6.69 4 4.38 4 2 C2.68 1.67 1.36 1.34 0 1 C0 0.67 0 0.34 0 0 Z " fill="#58442F" transform="translate(111,69)"/> <path d="M0 0 C2.31 0.33 4.62 0.66 7 1 C6.25 3.9375 6.25 3.9375 5 7 C2.09299153 8.406617 1.12277995 8.04092665 -2 7 C-2 6.34 -2 5.68 -2 5 C-1.34 5 -0.68 5 0 5 C0 4.34 0 3.68 0 3 C0.99 3 1.98 3 3 3 C2.01 2.01 1.02 1.02 0 0 Z " fill="#948B81" transform="translate(144,38)"/> <path d="M0 0 C0.66 0.33 1.32 0.66 2 1 C1.67 1.66 1.34 2.32 1 3 C1.66 3.33 2.32 3.66 3 4 C3.33 3.34 3.66 2.68 4 2 C4.33 2.99 4.66 3.98 5 5 C4.01 6.485 4.01 6.485 3 8 C0.03 7.505 0.03 7.505 -3 7 C-3 5.68 -3 4.36 -3 3 C-2.34 3 -1.68 3 -1 3 C-0.67 2.01 -0.34 1.02 0 0 Z " fill="#928477" transform="translate(127,36)"/> <path d="M0 0 C0.99 0 1.98 0 3 0 C3 1.32 3 2.64 3 4 C3.99 4.66 4.98 5.32 6 6 C0.76528314 6.75612577 -3.77254141 7.2063366 -9 6 C-9 5.67 -9 5.34 -9 5 C-4.545 4.505 -4.545 4.505 0 4 C0 2.68 0 1.36 0 0 Z " fill="#8F8F8F" transform="translate(135,98)"/> <path d="M0 0 C2.0625 0.4375 2.0625 0.4375 4 1 C4 2.65 4 4.3 4 6 C2.125 6.625 2.125 6.625 0 7 C-0.66 6.34 -1.32 5.68 -2 5 C-1.46428571 1.46428571 -1.46428571 1.46428571 0 0 Z " fill="#F7F8FA" transform="translate(136,127)"/> <path d="M0 0 C0.66 0.66 1.32 1.32 2 2 C2.66 1.67 3.32 1.34 4 1 C4.66 2.65 5.32 4.3 6 6 C2.30458414 6.95024979 -0.30458414 6.95024979 -4 6 C-4 5.34 -4 4.68 -4 4 C-2.68 4 -1.36 4 0 4 C0 2.68 0 1.36 0 0 Z " fill="#EFEFEF" transform="translate(129,78)"/> <path d="M0 0 C1.65 0 3.3 0 5 0 C5.33 0.99 5.66 1.98 6 3 C4.68 3 3.36 3 2 3 C2.33 4.32 2.66 5.64 3 7 C2.01 7.33 1.02 7.66 0 8 C-1.125 6.25 -1.125 6.25 -2 4 C-1.125 1.75 -1.125 1.75 0 0 Z " fill="#604A33" transform="translate(134,53)"/> <path d="M0 0 C1.32 0 2.64 0 4 0 C5.25664978 2.90600261 6 4.79604584 6 8 C4.35 7.67 2.7 7.34 1 7 C0.67 6.01 0.34 5.02 0 4 C0.66 4 1.32 4 2 4 C2 3.34 2 2.68 2 2 C1.01 1.67 0.02 1.34 -1 1 C-0.67 0.67 -0.34 0.34 0 0 Z " fill="#BE913D" transform="translate(92,44)"/> <path d="M0 0 C0.33 1.65 0.66 3.3 1 5 C-3.75 8 -3.75 8 -6 8 C-5 5 -5 5 -4 3 C-5.32 2.67 -6.64 2.34 -8 2 C-5.09399739 0.74335022 -3.20395416 0 0 0 Z " fill="#B4213F" transform="translate(118,16)"/> <path d="M0 0 C0.66 0 1.32 0 2 0 C1.39665691 3.70503641 -0.22474237 5.85968148 -2.5625 8.75 C-3.52349609 9.94882813 -3.52349609 9.94882813 -4.50390625 11.171875 C-4.99761719 11.77515625 -5.49132812 12.3784375 -6 13 C-6.66 12.67 -7.32 12.34 -8 12 C-6.71656721 9.99426318 -5.4239631 7.99563881 -4.125 6 C-3.76019531 5.42765625 -3.39539063 4.8553125 -3.01953125 4.265625 C-2.06525233 2.80818084 -1.03722413 1.39962775 0 0 Z " fill="#C52646" transform="translate(108,93)"/> <path d="M0 0 C0.99 0 1.98 0 3 0 C3.33 2.31 3.66 4.62 4 7 C3.21625 7.45375 2.4325 7.9075 1.625 8.375 C-1.03698031 9.88428742 -1.03698031 9.88428742 -3 12 C-3 11.01 -3 10.02 -3 9 C-3.66 9 -4.32 9 -5 9 C-5 8.34 -5 7.68 -5 7 C-2.03 7.495 -2.03 7.495 1 8 C0.67 5.36 0.34 2.72 0 0 Z " fill="#866F45" transform="translate(112,71)"/> <path d="M0 0 C2.125 0.9375 2.125 0.9375 4 2 C3.67 3.65 3.34 5.3 3 7 C1.68 7.33 0.36 7.66 -1 8 C-1.33 5.69 -1.66 3.38 -2 1 C-1.34 0.67 -0.68 0.34 0 0 Z " fill="#897664" transform="translate(117,63)"/> <path d="M0 0 C0.33 0 0.66 0 1 0 C1.125 6.625 1.125 6.625 0 10 C1.32 9.67 2.64 9.34 4 9 C4 9.66 4 10.32 4 11 C2.68 11 1.36 11 0 11 C1.98 13.97 1.98 13.97 4 17 C-2 14 -2 14 -2.75 12.1875 C-3.06434207 9.43700689 -2.28248371 8.42246924 -1 6 C-0.61709538 4.00889599 -0.27395385 2.00899487 0 0 Z " fill="#554331" transform="translate(123,44)"/> <path d="M0 0 C3.875 1.875 3.875 1.875 5 3 C6 6 6 6 5 9 C3.68 9 2.36 9 1 9 C1 7.68 1 6.36 1 5 C0.34 4.67 -0.32 4.34 -1 4 C-0.67 2.68 -0.34 1.36 0 0 Z " fill="#F0F6F0" transform="translate(126,114)"/> <path d="M0 0 C1.051875 0.185625 2.10375 0.37125 3.1875 0.5625 C6.57119882 0.95079331 8.76425888 0.88247485 12 0 C11.34 0.66 10.68 1.32 10 2 C10.33 2.66 10.66 3.32 11 4 C10.34 4 9.68 4 9 4 C9 4.66 9 5.32 9 6 C8.34 6 7.68 6 7 6 C6.67 6.66 6.34 7.32 6 8 C6 7.01 6 6.02 6 5 C5.195625 4.731875 4.39125 4.46375 3.5625 4.1875 C2.716875 3.795625 1.87125 3.40375 1 3 C0.67 2.01 0.34 1.02 0 0 Z " fill="#B7C3CD" transform="translate(160,94)"/> <path d="M0 0 C3.96 1.98 7.92 3.96 12 6 C12 6.66 12 7.32 12 8 C10.55903414 7.57405412 9.12231288 7.13373367 7.6875 6.6875 C6.88699219 6.44386719 6.08648437 6.20023438 5.26171875 5.94921875 C2.87242107 4.94645651 1.60410493 4.01940718 0 2 C0 1.34 0 0.68 0 0 Z " fill="#745F4A" transform="translate(151,35)"/> <path d="M0 0 C0.66 0 1.32 0 2 0 C0.40956621 5.08938811 -2.7446951 8.87456643 -6 13 C-6.33 12.01 -6.66 11.02 -7 10 C-5.63671875 7.51953125 -5.63671875 7.51953125 -3.6875 4.8125 C-3.05199219 3.91144531 -2.41648437 3.01039062 -1.76171875 2.08203125 C-1.18035156 1.39496094 -0.59898438 0.70789063 0 0 Z " fill="#C42344" transform="translate(101,88)"/> <path d="M0 0 C2.375 0.3125 2.375 0.3125 5 1 C5.66 1.99 6.32 2.98 7 4 C6.34 5.32 5.68 6.64 5 8 C3.68 7.67 2.36 7.34 1 7 C1.33 6.34 1.66 5.68 2 5 C1.34 4.01 0.68 3.02 0 2 C0 1.34 0 0.68 0 0 Z " fill="#90877F" transform="translate(123,55)"/> <path d="M0 0 C2.4375 0.8125 2.4375 0.8125 5 2 C5.33 2.99 5.66 3.98 6 5 C5.67 5.66 5.34 6.32 5 7 C5.99 7.33 6.98 7.66 8 8 C7.01 8.495 7.01 8.495 6 9 C6 9.99 6 10.98 6 12 C5.34 12 4.68 12 4 12 C4 9.03 4 6.06 4 3 C3.01 3 2.02 3 1 3 C0.67 3.66 0.34 4.32 0 5 C0 3.35 0 1.7 0 0 Z " fill="#DAE8DA" transform="translate(120,111)"/> <path d="M0 0 C0 0.66 0 1.32 0 2 C0.66 2.33 1.32 2.66 2 3 C0.02 5.97 0.02 5.97 -2 9 C-2.99 8.01 -3.98 7.02 -5 6 C-3.68 5.67 -2.36 5.34 -1 5 C-1 4.34 -1 3.68 -1 3 C-1.99 3.33 -2.98 3.66 -4 4 C-4.66 3.34 -5.32 2.68 -6 2 C-2.25 0 -2.25 0 0 0 Z " fill="#082659" transform="translate(121,88)"/> <path d="M0 0 C3 1 3 1 5 4 C4.625 6.1875 4.625 6.1875 4 8 C3.67 6.68 3.34 5.36 3 4 C2.34 4 1.68 4 1 4 C1.33 5.65 1.66 7.3 2 9 C1.01 7.68 0.02 6.36 -1 5 C-1.99 5.495 -1.99 5.495 -3 6 C-2 4 -1 2 0 0 Z " fill="#DAE7DA" transform="translate(132,113)"/> <path d="M0 0 C4 4.75 4 4.75 4 7 C2.02 7 0.04 7 -2 7 C-2.33 6.01 -2.66 5.02 -3 4 C-3.66 3.34 -4.32 2.68 -5 2 C-3.35 2 -1.7 2 0 2 C0 1.34 0 0.68 0 0 Z " fill="#B7C0CC" transform="translate(80,90)"/> <path d="M0 0 C0.99 0.33 1.98 0.66 3 1 C0.36 4.63 -2.28 8.26 -5 12 C-5.33 11.01 -5.66 10.02 -6 9 C-4.78515625 6.73828125 -4.78515625 6.73828125 -3.0625 4.3125 C-2.49660156 3.50425781 -1.93070312 2.69601563 -1.34765625 1.86328125 C-0.90292969 1.24839844 -0.45820312 0.63351563 0 0 Z " fill="#F8E6E1" transform="translate(99,87)"/> <path d="M0 0 C0.66 0.99 1.32 1.98 2 3 C1.34 3.45375 0.68 3.9075 0 4.375 C-0.99 5.179375 -0.99 5.179375 -2 6 C-2 6.66 -2 7.32 -2 8 C-4.02045442 7.39816251 -6.02111039 6.72693904 -8 6 C-8.33 5.34 -8.66 4.68 -9 4 C-6.03 3.34 -3.06 2.68 0 2 C0 1.34 0 0.68 0 0 Z " fill="#FEFDF3" transform="translate(146,81)"/> <path d="M0 0 C1.32 0.99 2.64 1.98 4 3 C3.67 4.65 3.34 6.3 3 8 C1.02 8.66 -0.96 9.32 -3 10 C-2.67 8.68 -2.34 7.36 -2 6 C-1.34 6 -0.68 6 0 6 C0 5.01 0 4.02 0 3 C-0.66 2.67 -1.32 2.34 -2 2 C-1.34 2 -0.68 2 0 2 C0 1.34 0 0.68 0 0 Z " fill="#765F48" transform="translate(120,70)"/> <path d="M0 0 C1.32 0.66 2.64 1.32 4 2 C4.52493438 7.24934383 4.52493438 7.24934383 4 10 C-0.6 14 -0.6 14 -4 14 C-3.67 13.01 -3.34 12.02 -3 11 C-2.01 10.5978125 -2.01 10.5978125 -1 10.1875 C1.32858109 9.11072561 1.32858109 9.11072561 1.875 6.0625 C2.30787112 2.82462068 2.30787112 2.82462068 0 0 Z " fill="#CCC6C4" transform="translate(100,62)"/> <path d="M0 0 C1.32 0 2.64 0 4 0 C4.33 1.98 4.66 3.96 5 6 C2 6 2 6 -1 4 C-0.67 2.68 -0.34 1.36 0 0 Z " fill="#243F6E" transform="translate(98,78)"/> <path d="M0 0 C1.98 0.66 3.96 1.32 6 2 C5.67 3.32 5.34 4.64 5 6 C3.35 5.67 1.7 5.34 0 5 C-0.5625 3.0625 -0.5625 3.0625 -1 1 C-0.67 0.67 -0.34 0.34 0 0 Z " fill="#847260" transform="translate(111,52)"/> <path d="M0 0 C1.22589844 0.15275391 1.22589844 0.15275391 2.4765625 0.30859375 C3.41628906 0.43427734 3.41628906 0.43427734 4.375 0.5625 C4.375 1.2225 4.375 1.8825 4.375 2.5625 C2.065 2.5625 -0.245 2.5625 -2.625 2.5625 C-2.955 3.5525 -3.285 4.5425 -3.625 5.5625 C-3.955 4.5725 -4.285 3.5825 -4.625 2.5625 C-5.285 1.9025 -5.945 1.2425 -6.625 0.5625 C-4.10446405 -0.69776798 -2.7707902 -0.35624445 0 0 Z " fill="#D2D1D1" transform="translate(88.625,49.4375)"/> <path d="M0 0 C0.99 0.33 1.98 0.66 3 1 C2.67 1.33 2.34 1.66 2 2 C2.66 3.32 3.32 4.64 4 6 C4.66 6 5.32 6 6 6 C5.67 7.32 5.34 8.64 5 10 C4.01 10 3.02 10 2 10 C1.01 7.03 0.02 4.06 -1 1 C-0.67 0.67 -0.34 0.34 0 0 Z " fill="#E5E5E5" transform="translate(96,42)"/> <path d="M0 0 C0.99 0.33 1.98 0.66 3 1 C0.03 4.96 0.03 4.96 -3 9 C-3.99 8.67 -4.98 8.34 -6 8 C-4.02 5.36 -2.04 2.72 0 0 Z " fill="#F6DED8" transform="translate(102,98)"/> <path d="M0 0 C0.99 0 1.98 0 3 0 C3 0.66 3 1.32 3 2 C3.763125 1.67 4.52625 1.34 5.3125 1 C8 0 8 0 11 0 C11 0.66 11 1.32 11 2 C8.36 2.33 5.72 2.66 3 3 C3 3.66 3 4.32 3 5 C2.01 4.67 1.02 4.34 0 4 C0 2.68 0 1.36 0 0 Z " fill="#BEC7D2" transform="translate(148,95)"/> <path d="M0 0 C0.66 0 1.32 0 2 0 C2 0.99 2 1.98 2 3 C4.97 3.33 7.94 3.66 11 4 C6.64467851 6.17766075 5.53374042 6.03039555 1 5 C0.67 3.35 0.34 1.7 0 0 Z " fill="#A68644" transform="translate(123,81)"/> <path d="M0 0 C4.6875 3.515625 4.6875 3.515625 6 5 C6 6.32 6 7.64 6 9 C4.02 9.66 2.04 10.32 0 11 C-0.33 10.34 -0.66 9.68 -1 9 C0.32 8.34 1.64 7.68 3 7 C2.505 6.21625 2.01 5.4325 1.5 4.625 C0 2 0 2 0 0 Z " fill="#FFEE60" transform="translate(144,76)"/> <path d="M0 0 C3.68802044 1.22934015 4.72356973 2.93859378 7 6 C4.03824877 5.38722388 2.61941217 4.74627478 0 3 C-1.32 4.65 -2.64 6.3 -4 8 C-4.66 7.67 -5.32 7.34 -6 7 C-4.02 4.69 -2.04 2.38 0 0 Z " fill="#C5B83F" transform="translate(102,72)"/> <path d="M0 0 C-1.32 0.33 -2.64 0.66 -4 1 C-4.33 2.32 -4.66 3.64 -5 5 C-5.99 5 -6.98 5 -8 5 C-8.33 6.32 -8.66 7.64 -9 9 C-9.375 6.25 -9.375 6.25 -9 3 C-4 -1.33333333 -4 -1.33333333 0 0 Z " fill="#54402B" transform="translate(131,34)"/> <path d="M0 0 C0 0.66 0 1.32 0 2 C-0.99 2.33 -1.98 2.66 -3 3 C-3 3.66 -3 4.32 -3 5 C-3.66 5 -4.32 5 -5 5 C-5 5.66 -5 6.32 -5 7 C-5.99 6.67 -6.98 6.34 -8 6 C-8 5.01 -8 4.02 -8 3 C-5.0936485 0.19744677 -4.21174952 0 0 0 Z " fill="#785E45" transform="translate(135,33)"/> <path d="M0 0 C0.33 0.66 0.66 1.32 1 2 C3.3140622 2.73075648 5.64828869 3.40138258 8 4 C8 4.66 8 5.32 8 6 C3.25 5.125 3.25 5.125 1 4 C0.34 4.66 -0.32 5.32 -1 6 C-1.66 5.34 -2.32 4.68 -3 4 C-2.34 4 -1.68 4 -1 4 C-0.67 2.68 -0.34 1.36 0 0 Z " fill="#4B3B2B" transform="translate(129,59)"/> <path d="M0 0 C0.84304687 0.42925781 0.84304687 0.42925781 1.703125 0.8671875 C4.02870923 2.01415931 6.37770201 3.07839794 8.75 4.125 C9.54921875 4.47820313 10.3484375 4.83140625 11.171875 5.1953125 C11.77515625 5.46085937 12.3784375 5.72640625 13 6 C10.60042386 6.84119973 9.35077442 7.11193544 6.89453125 6.328125 C6.20746094 5.97234375 5.52039063 5.6165625 4.8125 5.25 C4.11769531 4.90453125 3.42289062 4.5590625 2.70703125 4.203125 C1 3 1 3 0 0 Z " fill="#B21D3C" transform="translate(83,54)"/> <path d="M0 0 C0.33 0.66 0.66 1.32 1 2 C-1.31537955 5.72114571 -3.28579473 8.61229661 -7 11 C-7.66 10.67 -8.32 10.34 -9 10 C-8 8 -8 8 -5 7 C-3.56051882 5.37117603 -3.56051882 5.37117603 -2.3125 3.4375 C-1.87550781 2.79683594 -1.43851562 2.15617187 -0.98828125 1.49609375 C-0.66214844 1.00238281 -0.33601563 0.50867188 0 0 Z " fill="#BFA833" transform="translate(123,90)"/> <path d="M0 0 C1.485 0.99 1.485 0.99 3 2 C4.65549531 2.38499891 6.3222433 2.72793135 8 3 C6 5 6 5 3 6 C0.8125 5.0625 0.8125 5.0625 -1 4 C-0.67 2.68 -0.34 1.36 0 0 Z " fill="#6F5942" transform="translate(130,62)"/> <path d="M0 0 C0 0.99 0 1.98 0 3 C-2.64 3.33 -5.28 3.66 -8 4 C-7.67 3.01 -7.34 2.02 -7 1 C-4.53721199 -0.231394 -2.7204945 -0.07159196 0 0 Z " fill="#8A0722" transform="translate(97,34)"/> <path d="M0 0 C1.98 0 3.96 0 6 0 C6 1.65 6 3.3 6 5 C4.02 4.34 2.04 3.68 0 3 C0 2.01 0 1.02 0 0 Z " fill="#AFB9CB" transform="translate(149,126)"/> <path d="M0 0 C1.98 0 3.96 0 6 0 C5.67 1.32 5.34 2.64 5 4 C1 4 1 4 -2 2 C-1.34 2 -0.68 2 0 2 C0 1.34 0 0.68 0 0 Z " fill="#306730" transform="translate(114,102)"/> <path d="M0 0 C1.32 0.33 2.64 0.66 4 1 C4.33 1.66 4.66 2.32 5 3 C4.01 3.495 4.01 3.495 3 4 C3.33 4.66 3.66 5.32 4 6 C2.68 6.99 1.36 7.98 0 9 C0 6.03 0 3.06 0 0 Z " fill="#477E48" transform="translate(81,84)"/> <path d="M0 0 C1.5 1.25 1.5 1.25 3 3 C3 4.32 3 5.64 3 7 C1.68 6.67 0.36 6.34 -1 6 C-1 5.34 -1 4.68 -1 4 C-1.66 3.67 -2.32 3.34 -3 3 C-2.01 2.01 -1.02 1.02 0 0 Z " fill="#F4F3F2" transform="translate(120,77)"/> <path d="M0 0 C2.475 0.495 2.475 0.495 5 1 C5 1.66 5 2.32 5 3 C5.66 3 6.32 3 7 3 C7.33 3.99 7.66 4.98 8 6 C5.07120629 5.37240135 2.63904371 4.41377341 0 3 C0 2.01 0 1.02 0 0 Z " fill="#880721" transform="translate(92,61)"/> <path d="M0 0 C0.99 0 1.98 0 3 0 C3 2.31 3 4.62 3 7 C2.01 7 1.02 7 0 7 C0 4.69 0 2.38 0 0 Z " fill="#FCFCFD" transform="translate(120,127)"/> <path d="M0 0 C2.53412471 1.26706235 2.97838008 2.40665712 4 5 C3.67 5.66 3.34 6.32 3 7 C1.68 6.34 0.36 5.68 -1 5 C-0.67 3.35 -0.34 1.7 0 0 Z " fill="#7F6B57" transform="translate(108,60)"/> <path d="M0 0 C0.99 0.33 1.98 0.66 3 1 C3 2.98 3 4.96 3 7 C2.01 7 1.02 7 0 7 C0 5.68 0 4.36 0 3 C-0.66 2.67 -1.32 2.34 -2 2 C-1.34 2 -0.68 2 0 2 C0 1.34 0 0.68 0 0 Z " fill="#867565" transform="translate(113,43)"/> <path d="M0 0 C0.99 0.33 1.98 0.66 3 1 C2.34 2.65 1.68 4.3 1 6 C0.01 6 -0.98 6 -2 6 C-2.33 5.01 -2.66 4.02 -3 3 C-2.01 2.67 -1.02 2.34 0 2 C0 1.34 0 0.68 0 0 Z " fill="#980B28" transform="translate(83,40)"/> <path d="M0 0 C0.66 0.33 1.32 0.66 2 1 C2 1.99 2 2.98 2 4 C1.34 4.66 0.68 5.32 0 6 C0 6.66 0 7.32 0 8 C-0.99 8 -1.98 8 -3 8 C-2.45276317 4.62537285 -1.9451 2.91765 0 0 Z " fill="#AE2743" transform="translate(81,38)"/> <path d="M0 0 C0.99 0 1.98 0 3 0 C3 0.99 3 1.98 3 3 C3.66 3.33 4.32 3.66 5 4 C4.67 4.66 4.34 5.32 4 6 C2.68 6 1.36 6 0 6 C0 4.02 0 2.04 0 0 Z " fill="#DDE9DD" transform="translate(140,104)"/> <path d="M0 0 C2.375 0.3125 2.375 0.3125 5 1 C7 4 7 4 7 7 C5.68 6.34 4.36 5.68 3 5 C3 4.01 3 3.02 3 2 C2.01 1.67 1.02 1.34 0 1 C0 0.67 0 0.34 0 0 Z " fill="#567F52" transform="translate(86,98)"/> <path d="M0 0 C1.32 0 2.64 0 4 0 C4.66 0.99 5.32 1.98 6 3 C4.02 3.99 2.04 4.98 0 6 C0 4.02 0 2.04 0 0 Z " fill="#48392A" transform="translate(127,72)"/> <path d="M0 0 C0.33 0 0.66 0 1 0 C1.36923077 5.53846154 1.36923077 5.53846154 -0.5 7.875 C-1.2425 8.431875 -1.2425 8.431875 -2 9 C-2.33 8.01 -2.66 7.02 -3 6 C-5.01508358 5.26676204 -5.01508358 5.26676204 -7 5 C-4.69 5 -2.38 5 0 5 C0 3.35 0 1.7 0 0 Z " fill="#483624" transform="translate(120,45)"/> <path d="M0 0 C2.64 0.99 5.28 1.98 8 3 C8 3.99 8 4.98 8 6 C7.34 6 6.68 6 6 6 C6 5.34 6 4.68 6 4 C4.35 3.67 2.7 3.34 1 3 C0.67 2.01 0.34 1.02 0 0 Z " fill="#755D46" transform="translate(138,45)"/> <path d="M0 0 C2.97 0.495 2.97 0.495 6 1 C5.67 1.99 5.34 2.98 5 4 C5 3.34 5 2.68 5 2 C4.34 2 3.68 2 3 2 C3 2.66 3 3.32 3 4 C2.34 4 1.68 4 1 4 C0.67 4.66 0.34 5.32 0 6 C0 5.34 0 4.68 0 4 C-0.66 4 -1.32 4 -2 4 C-2 3.34 -2 2.68 -2 2 C-1.34 2 -0.68 2 0 2 C0 1.34 0 0.68 0 0 Z " fill="#CADECA" transform="translate(156,103)"/> <path d="M0 0 C5.75 0.75 5.75 0.75 8 3 C5.21176345 4.0326802 4.1322726 4.04509293 1.25 3.0625 C0.5075 2.711875 -0.235 2.36125 -1 2 C-0.67 1.34 -0.34 0.68 0 0 Z " fill="#DFE3EA" transform="translate(162,91)"/> <path d="M0 0 C0.99 0.33 1.98 0.66 3 1 C0.525 4.465 0.525 4.465 -2 8 C-2.33 7.01 -2.66 6.02 -3 5 C-1.5625 2.3125 -1.5625 2.3125 0 0 Z " fill="#C62A4A" transform="translate(97,86)"/> <path d="M0 0 C-0.33 0.99 -0.66 1.98 -1 3 C-1.99 3 -2.98 3 -4 3 C-4.33 3.66 -4.66 4.32 -5 5 C-5.66 4.67 -6.32 4.34 -7 4 C-7 3.34 -7 2.68 -7 2 C-4 0 -4 0 0 0 Z " fill="#CAD0DC" transform="translate(175,89)"/> <path d="M0 0 C0.99 0 1.98 0 3 0 C3.33 1.32 3.66 2.64 4 4 C2.02 4.99 2.02 4.99 0 6 C0 4.02 0 2.04 0 0 Z " fill="#9A122E" transform="translate(98,67)"/> <path d="M0 0 C1.98 0.99 3.96 1.98 6 3 C5.67 4.32 5.34 5.64 5 7 C4.01 6.67 3.02 6.34 2 6 C2.33 5.01 2.66 4.02 3 3 C1.68 2.67 0.36 2.34 -1 2 C-0.67 1.34 -0.34 0.68 0 0 Z " fill="#A1988F" transform="translate(118,56)"/> <path d="M0 0 C0.66 0 1.32 0 2 0 C2 0.66 2 1.32 2 2 C3.32 2.33 4.64 2.66 6 3 C5.01 3.33 4.02 3.66 3 4 C3 4.66 3 5.32 3 6 C2.34 6 1.68 6 1 6 C0.67 4.02 0.34 2.04 0 0 Z " fill="#6E5944" transform="translate(110,39)"/> <path d="M0 0 C1 3 1 3 0 6 C-1.65 5.67 -3.3 5.34 -5 5 C-4 2 -4 2 -1.9375 0.8125 C-1.298125 0.544375 -0.65875 0.27625 0 0 Z " fill="#DBE8DB" transform="translate(99,109)"/> <path d="M0 0 C1.98 0 3.96 0 6 0 C5.67 1.32 5.34 2.64 5 4 C3.35 3.67 1.7 3.34 0 3 C0 2.01 0 1.02 0 0 Z " fill="#4C4C4C" transform="translate(134,92)"/> <path d="M0 0 C2.4375 0.375 2.4375 0.375 5 1 C5.33 1.66 5.66 2.32 6 3 C3.36 3 0.72 3 -2 3 C-1.34 2.01 -0.68 1.02 0 0 Z " fill="#FFB515" transform="translate(155,86)"/> <path d="M0 0 C2.97 0 5.94 0 9 0 C8.01 0.495 8.01 0.495 7 1 C7 1.66 7 2.32 7 3 C6.01 3.33 5.02 3.66 4 4 C2.68 2.68 1.36 1.36 0 0 Z " fill="#A09489" transform="translate(119,68)"/> <path d="M0 0 C2.0625 0.4375 2.0625 0.4375 4 1 C3.34 1 2.68 1 2 1 C1.87625 1.598125 1.7525 2.19625 1.625 2.8125 C1 5 1 5 -1 8 C-1.04241723 5.66705225 -1.04092937 3.33297433 -1 1 C-0.67 0.67 -0.34 0.34 0 0 Z " fill="#6E563D" transform="translate(110,30)"/> <path d="M0 0 C0.33 0.99 0.66 1.98 1 3 C0.01 3.99 -0.98 4.98 -2 6 C-2.99 5.67 -3.98 5.34 -5 5 C-4 2 -4 2 -1.9375 0.8125 C-1.298125 0.544375 -0.65875 0.27625 0 0 Z " fill="#8D0722" transform="translate(114,18)"/> <path d="M0 0 C1.32 0.33 2.64 0.66 4 1 C4 1.66 4 2.32 4 3 C3.195625 3.12375 2.39125 3.2475 1.5625 3.375 C0.2940625 3.684375 0.2940625 3.684375 -1 4 C-1.33 4.66 -1.66 5.32 -2 6 C-2 4.68 -2 3.36 -2 2 C-1.34 2 -0.68 2 0 2 C0 1.34 0 0.68 0 0 Z " fill="#E4EEE4" transform="translate(159,105)"/> <path d="M0 0 C0.99 0.33 1.98 0.66 3 1 C3 1.66 3 2.32 3 3 C4.32 3.33 5.64 3.66 7 4 C6.01 5.485 6.01 5.485 5 7 C5 6.01 5 5.02 5 4 C4.01 4.33 3.02 4.66 2 5 C1.01 3.68 0.02 2.36 -1 1 C-0.67 0.67 -0.34 0.34 0 0 Z " fill="#D6E4D6" transform="translate(88,105)"/> <path d="M0 0 C1.9375 0.8125 1.9375 0.8125 4 2 C4.33 2.99 4.66 3.98 5 5 C3.35 4.67 1.7 4.34 0 4 C0 2.68 0 1.36 0 0 Z " fill="#98843B" transform="translate(117,82)"/> <path d="M0 0 C0.33 0.99 0.66 1.98 1 3 C-0.65 4.65 -2.3 6.3 -4 8 C-3.67 6.02 -3.34 4.04 -3 2 C-2.01 2 -1.02 2 0 2 C0 1.34 0 0.68 0 0 Z " fill="#B0344D" transform="translate(97,70)"/> <path d="M0 0 C1.65 0.99 3.3 1.98 5 3 C4.67 3.99 4.34 4.98 4 6 C2.68 5.34 1.36 4.68 0 4 C0 2.68 0 1.36 0 0 Z " fill="#6A553F" transform="translate(138,57)"/> <path d="M0 0 C1.98 0.66 3.96 1.32 6 2 C6 2.99 6 3.98 6 5 C4.35 4.67 2.7 4.34 1 4 C0.67 2.68 0.34 1.36 0 0 Z " fill="#755F48" transform="translate(144,32)"/> <path d="M0 0 C1.32 0.33 2.64 0.66 4 1 C4 1.99 4 2.98 4 4 C2.35 4.33 0.7 4.66 -1 5 C-1.33 4.01 -1.66 3.02 -2 2 C-1.34 2 -0.68 2 0 2 C0 1.34 0 0.68 0 0 Z " fill="#970725" transform="translate(104,21)"/></svg>
